<svg width="124" height="29" viewBox="0 0 124 29" fill="none" xmlns="http://www.w3.org/2000/svg">
<mask id="mask0_6495_15385" style="mask-type:luminance" maskUnits="userSpaceOnUse" x="0" y="7" width="8" height="7">
<path d="M0 7.62079H7.87516V13.896H0V7.62079Z" fill="white"/>
</mask>
<g mask="url(#mask0_6495_15385)">
<path d="M6.95275 11.1906C7.04782 11.2951 7.1917 11.3519 7.37413 11.3519H7.52315C7.55142 11.3519 7.57454 11.3622 7.5861 11.3803C7.59638 11.3971 7.6028 11.4138 7.6028 11.4306V12.1711C7.6028 12.1711 7.6028 12.2047 7.5861 12.2214C7.57454 12.2395 7.55784 12.2498 7.52315 12.2498H7.06709C6.65085 12.2498 6.32968 12.1234 6.11385 11.8602C5.8916 11.6035 5.78111 11.2526 5.78111 10.8229V8.58457H5.53702C4.81631 8.58457 4.45531 8.91742 4.45531 9.58184V12.2498H1.80499C1.18192 12.2498 0.723281 12.0886 0.434226 11.7609C0.143886 11.4358 0 11.0229 0 10.5314V8.58199H1.03289V10.3701C1.03289 11.0345 1.39389 11.3622 2.1146 11.3622H3.42242V9.41799C3.42242 8.92903 3.5663 8.51619 3.85664 8.18592C4.1457 7.85823 4.5992 7.69696 5.22741 7.69696H6.80887V10.6617C6.80887 10.9184 6.85897 11.1029 6.95275 11.201M1.3592 12.8884H2.42036V13.8186H1.3592V12.8884ZM2.82889 12.8884H3.89005V13.8186H2.82889V12.8884Z" fill="#355C4D"/>
</g>
<path d="M10.6079 8.58701C10.8135 8.64894 11.0743 8.74183 11.3903 8.86697L11.0576 9.73136C10.7081 9.5817 10.4075 9.503 10.1544 9.503C9.80499 9.503 9.53263 9.5817 9.33222 9.73136C9.13309 9.88101 9.03417 10.1042 9.03417 10.3958C9.03417 10.7351 9.13823 11.055 9.34892 11.3479H11.6177L11.3954 12.2329H7.52209C7.49383 12.2329 7.47199 12.2213 7.46043 12.2045C7.44886 12.1878 7.44373 12.171 7.44373 12.1542V11.4137C7.44373 11.4137 7.44373 11.3801 7.46043 11.3621C7.47199 11.3453 7.48869 11.3337 7.52209 11.3337H8.23766C8.05395 10.9841 7.96403 10.659 7.96403 10.3648C7.96403 10.0036 8.04368 9.68362 8.19784 9.39592C8.35329 9.10951 8.5871 8.88374 8.88515 8.71989C9.1832 8.55863 9.54677 8.47348 9.96044 8.47348C10.1827 8.47348 10.3934 8.50831 10.5989 8.57024" fill="#355C4D"/>
<path d="M13.5992 11.1905C13.6955 11.295 13.8394 11.3518 14.0219 11.3518H14.1709C14.1991 11.3518 14.2223 11.3621 14.2325 11.3802C14.2441 11.397 14.2505 11.4137 14.2505 11.4305V12.171C14.2505 12.171 14.2505 12.2046 14.2325 12.2214C14.2223 12.2394 14.2043 12.2497 14.1709 12.2497H13.7148C13.2986 12.2497 12.9774 12.1233 12.7616 11.8601C12.5393 11.6034 12.4288 11.2525 12.4288 10.8229V6.58865H13.4617V10.6616C13.4617 10.9183 13.5131 11.1028 13.6056 11.2009" fill="#355C4D"/>
<path d="M16.0172 11.0771C16.1675 11.2603 16.4 11.3519 16.7328 11.3519C16.761 11.3519 16.7829 11.3623 16.7944 11.3803C16.806 11.3971 16.8111 11.4139 16.8111 11.4306V12.1712C16.8111 12.1712 16.8111 12.2047 16.7944 12.2215C16.7829 12.2396 16.7662 12.2499 16.7328 12.2499C16.5722 12.2499 16.3949 12.2112 16.2009 12.1338C16.012 12.0551 15.8399 11.939 15.6857 11.7777C15.4185 12.0951 15.0691 12.2525 14.6246 12.2525H14.1685C14.1403 12.2525 14.1184 12.2421 14.1068 12.2254C14.0953 12.2073 14.0901 12.1905 14.0901 12.1738V11.4332C14.0901 11.4332 14.0901 11.3997 14.1068 11.3829C14.1184 11.3661 14.1351 11.3545 14.1685 11.3545H14.3175C14.5115 11.3545 14.6837 11.2745 14.8211 11.1197C14.9599 10.9636 15.0331 10.7585 15.0331 10.5005V8.573H16.066V10.6617C16.066 10.8062 16.0493 10.9417 16.021 11.0746M15.0216 7.00937H16.0827V7.93955H15.0216V7.00937Z" fill="#355C4D"/>
<path d="M22.0011 8.7368C22.2991 8.89807 22.5329 9.12126 22.6884 9.41283C22.8425 9.69795 22.9222 10.0205 22.9222 10.3817C22.9222 10.6617 22.8772 10.9158 22.7899 11.1339C22.9389 11.2784 23.1611 11.3454 23.4502 11.3454C23.4785 11.3454 23.5016 11.3571 23.5131 11.3738C23.5234 11.3906 23.5298 11.4074 23.5298 11.4254V12.166C23.5298 12.166 23.5298 12.1995 23.5131 12.2163C23.5016 12.2331 23.4849 12.2447 23.4502 12.2447C23.2845 12.2447 23.102 12.2047 22.9132 12.1234C22.7192 12.0382 22.5471 11.9221 22.3929 11.7557C22.055 12.0782 21.6324 12.2447 21.1313 12.2447H16.7325C16.7043 12.2447 16.6812 12.2331 16.6709 12.2163C16.6593 12.1995 16.6542 12.1827 16.6542 12.166V11.4254C16.6542 11.4254 16.6542 11.3906 16.6709 11.3738C16.6812 11.3571 16.6991 11.3454 16.7325 11.3454H17.47V8.56393H18.5028V9.33929C19.3533 8.77035 20.155 8.48523 20.9232 8.48523C21.3394 8.48523 21.7004 8.57038 21.9985 8.73164M19.5807 9.6128C19.2377 9.7573 18.8767 9.95856 18.5054 10.2269V11.3519H20.963C21.2521 11.3519 21.4718 11.2667 21.6298 11.0939C21.7839 10.9223 21.8636 10.6926 21.8636 10.3985C21.8636 10.1043 21.7595 9.85922 21.554 9.67473C21.3536 9.49153 21.0812 9.40122 20.7433 9.40122C20.3155 9.40122 19.9276 9.47476 19.5833 9.6128" fill="#355C4D"/>
<path d="M23.4537 12.2357C23.4254 12.2357 23.4023 12.2254 23.3907 12.2073C23.3804 12.1905 23.374 12.1738 23.374 12.157V11.4165C23.374 11.4165 23.374 11.3829 23.3907 11.3661C23.4023 11.3481 23.419 11.3378 23.4537 11.3378H24.1911V6.56299H25.2124V12.2254H23.4537V12.2357Z" fill="#355C4D"/>
<path d="M26.4653 6.57718H27.4982V12.2396H26.4653V6.57718Z" fill="#355C4D"/>
<path d="M35.099 11.3738C35.099 11.3738 35.117 11.4073 35.117 11.4254V12.1659C35.117 12.1659 35.117 12.1994 35.099 12.2162C35.0887 12.233 35.072 12.2446 35.0373 12.2446H34.2216V13.5592H32.017C31.3952 13.5592 30.9366 13.398 30.6475 13.0703C30.3572 12.7478 30.2133 12.3349 30.2133 11.8434V10.3984H31.2462V11.6731C31.2462 12.3375 31.6072 12.6716 32.3266 12.6716H33.1887V8.57032H34.2216V11.3518H35.0373C35.0656 11.3518 35.0887 11.3622 35.099 11.3802M31.6213 7.64529H32.6825V8.57548H31.6213V7.64529Z" fill="#355C4D"/>
<path d="M37.9962 8.73681C38.2943 8.89807 38.5332 9.12643 38.7003 9.41284C38.866 9.70311 38.9508 10.0205 38.9508 10.3766C38.9508 10.8397 38.8005 11.4564 38.505 12.2305H35.0376C35.0093 12.2305 34.9875 12.2189 34.9759 12.2021C34.9644 12.1853 34.9592 12.1686 34.9592 12.1518V11.4112C34.9592 11.4112 34.9592 11.3764 34.9759 11.3596C34.9875 11.3429 35.0042 11.3313 35.0376 11.3313H35.4821V8.62973C36.1219 8.53039 36.6088 8.48007 36.9466 8.48007C37.3462 8.48007 37.6943 8.56393 37.9962 8.7252M36.5099 9.43477V11.3519H37.7316C37.8305 11.0126 37.8806 10.6926 37.8806 10.3985C37.8806 9.72376 37.5826 9.38445 36.9826 9.38445C36.8336 9.38445 36.673 9.40122 36.5099 9.43477Z" fill="#355C4D"/>
<path d="M44.2504 11.1905C44.3455 11.295 44.4894 11.3517 44.6731 11.3517H44.8221C44.8504 11.3517 44.8722 11.3621 44.8838 11.3801C44.8953 11.3969 44.9005 11.4137 44.9005 11.4304V12.171C44.9005 12.171 44.9005 12.2045 44.8838 12.2213C44.8722 12.2393 44.8555 12.2497 44.8221 12.2497H44.366C43.9215 12.2497 43.5888 12.1 43.355 11.7981C42.9503 12.0974 42.4943 12.2497 42.0009 12.2497H39.8208L39.42 11.3659H41.1569L40.4362 8.15479H41.4922L42.1846 11.3543C42.5559 11.3195 42.863 11.233 43.0878 11.0963C43.0762 10.9815 43.0711 10.8847 43.0711 10.8228V6.43892H44.104V10.6564C44.104 10.9131 44.1541 11.0963 44.2479 11.2008M41.6014 6.5202L41.4922 6.99496C41.3483 6.95626 41.2365 6.93304 41.1543 6.93304C41.1042 6.93304 41.0644 6.94465 41.0336 6.97303C41.0027 7.00142 40.9822 7.03496 40.9822 7.07237C40.9822 7.14591 41.0169 7.1988 41.0785 7.23364H41.7054V7.71357H40.237L40.3629 7.23364H40.6366C40.5852 7.1343 40.5634 7.04399 40.5634 6.95884C40.5634 6.80403 40.6135 6.66727 40.7072 6.56922C40.8023 6.46472 40.9346 6.41312 41.1068 6.41312C41.2327 6.41312 41.3997 6.44666 41.6052 6.51762" fill="#355C4D"/>
<path d="M44.8215 12.2357C44.7933 12.2357 44.7701 12.2254 44.7599 12.2073C44.7483 12.1905 44.7419 12.1738 44.7419 12.157V11.4165C44.7419 11.4165 44.7419 11.3829 44.7599 11.3661C44.7701 11.3481 44.7868 11.3378 44.8215 11.3378H45.5589V6.56299H46.5803V12.2254H44.8215V12.2357Z" fill="#355C4D"/>
<path d="M50.5137 11.1905C50.6087 11.295 50.7526 11.3518 50.9351 11.3518H51.0841C51.1123 11.3518 51.1355 11.3621 51.147 11.3802C51.1573 11.397 51.1637 11.4137 51.1637 11.4305V12.171C51.1637 12.171 51.1637 12.2046 51.147 12.2214C51.1355 12.2394 51.1188 12.2497 51.0841 12.2497H50.628C50.2118 12.2497 49.8906 12.1233 49.6748 11.8601C49.4525 11.6034 49.342 11.2525 49.342 10.8229V6.58865H50.3749V10.6616C50.3749 10.9183 50.4263 11.1028 50.5188 11.2009" fill="#355C4D"/>
<path d="M53.4538 11.046C53.5579 11.1621 53.6876 11.2473 53.8199 11.286C53.9574 11.3311 54.1694 11.3479 54.4533 11.3479C54.4816 11.3479 54.5034 11.3595 54.515 11.3763C54.5265 11.3931 54.5317 11.4111 54.5317 11.4279V12.1684C54.5317 12.1684 54.5317 12.202 54.515 12.2188C54.5034 12.2355 54.4867 12.2471 54.4533 12.2471C54.1437 12.2471 53.8983 12.1968 53.7095 12.1207C53.5219 12.0356 53.3498 11.8962 53.184 11.6846C53.0568 11.8627 52.8937 12.0007 52.6997 12.0975C52.5057 12.1968 52.2886 12.2471 52.0548 12.2471H51.0836C51.0553 12.2471 51.0335 12.2355 51.0219 12.2188C51.0103 12.202 51.0052 12.1852 51.0052 12.1684V11.4279C51.0052 11.4279 51.0052 11.3931 51.0219 11.3763C51.0335 11.3595 51.0502 11.3479 51.0836 11.3479H51.7452C51.9392 11.3479 52.1113 11.2692 52.2488 11.1144C52.3875 10.9583 52.4607 10.7519 52.4607 10.4951V8.4877H53.4936V10.6564C53.4936 10.7777 53.4821 10.908 53.4538 11.0409M51.4613 12.8883H52.5224V13.8185H51.4613V12.8883ZM52.9335 12.8883H53.9947V13.8185H52.9335V12.8883Z" fill="#355C4D"/>
<path d="M56.3019 11.0771C56.4509 11.2603 56.6847 11.3519 57.0174 11.3519C57.0457 11.3519 57.0675 11.3623 57.0791 11.3803C57.0907 11.3971 57.0958 11.4139 57.0958 11.4306V12.1712C57.0958 12.1712 57.0958 12.2047 57.0791 12.2215C57.0675 12.2396 57.0508 12.2499 57.0174 12.2499C56.8568 12.2499 56.6796 12.2112 56.4856 12.1338C56.2967 12.0551 56.1246 11.939 55.9704 11.7777C55.7032 12.0951 55.3538 12.2525 54.9092 12.2525H54.4532C54.4249 12.2525 54.4018 12.2421 54.3915 12.2254C54.38 12.2073 54.3748 12.1905 54.3748 12.1738V11.4332C54.3748 11.4332 54.3748 11.3997 54.3915 11.3829C54.4018 11.3661 54.4198 11.3545 54.4532 11.3545H54.6022C54.7962 11.3545 54.9683 11.2745 55.1058 11.1197C55.2433 10.9636 55.3165 10.7585 55.3165 10.5005V6.57718H56.3494V10.6669C56.3494 10.8114 56.3327 10.9468 56.3044 11.0797" fill="#355C4D"/>
<path d="M60.3533 8.56395C60.6629 8.70845 60.907 8.89809 61.0907 9.13806C61.2731 9.37286 61.3695 9.62444 61.3695 9.88504C61.3695 10.125 61.3014 10.3701 61.1639 10.6191C61.0265 10.8681 60.8428 11.0939 60.6038 11.2887C60.8376 11.3287 61.1575 11.3519 61.5686 11.3519C61.6316 11.3519 61.665 11.3803 61.665 11.4358V12.1595C61.665 12.2163 61.6316 12.2447 61.5686 12.2447C60.7811 12.2447 60.0886 12.1544 59.4887 11.9699C58.7744 12.1544 57.9522 12.2447 57.0324 12.2447C56.9758 12.2447 56.9476 12.2163 56.9476 12.1595V11.4358C56.9476 11.3803 56.9758 11.3519 57.0324 11.3519C57.5809 11.3519 58.0036 11.3287 58.2926 11.2784C58.0139 10.9558 57.676 10.4579 57.2765 9.80247L57.5051 8.84391C57.8815 8.68264 58.2143 8.55879 58.4982 8.47622C58.7821 8.39236 59.0699 8.35495 59.3705 8.35495C59.7251 8.35495 60.0514 8.42849 60.3649 8.57298M58.2117 9.63605C58.344 9.89794 58.5149 10.1702 58.732 10.4604C58.9491 10.752 59.1649 10.9894 59.3821 11.1907C59.6441 11.0629 59.8664 10.8991 60.0552 10.7017C60.2428 10.5069 60.3392 10.294 60.3392 10.0708C60.3392 9.84763 60.2402 9.67475 60.0411 9.54187C59.8407 9.41544 59.5966 9.34706 59.3037 9.34706C59.0108 9.34706 58.6421 9.44382 58.2168 9.63863" fill="#355C4D"/>
<path d="M61.5889 12.2357C61.5607 12.2357 61.5375 12.2254 61.526 12.2073C61.5157 12.1905 61.5093 12.1738 61.5093 12.157V11.4165C61.5093 11.4165 61.5093 11.3829 61.526 11.3661C61.5375 11.3481 61.5542 11.3378 61.5889 11.3378H62.3263V6.56299H63.3477V12.2254H61.5889V12.2357Z" fill="#355C4D"/>
<path d="M64.6021 6.57718H65.635V12.2396H64.6021V6.57718Z" fill="#355C4D"/>
<path d="M71.5606 8.64396V10.6501C71.5555 10.9081 71.6005 11.0913 71.6981 11.1907C71.7945 11.2952 71.9371 11.3519 72.1208 11.3519H72.2698C72.2981 11.3519 72.3199 11.3623 72.3315 11.3803C72.343 11.3971 72.3482 11.4139 72.3482 11.4306V12.1712C72.3482 12.1712 72.3482 12.2047 72.3315 12.2215C72.3199 12.2396 72.3032 12.2499 72.2698 12.2499H71.8137C71.3975 12.2499 71.0763 12.1234 70.8592 11.8654C70.637 11.6087 70.5278 11.2642 70.5278 10.823V9.44642C70.3556 9.41288 70.2014 9.39611 70.0601 9.39611C69.4615 9.39611 69.1621 9.73412 69.1621 10.4101C69.1621 10.7043 69.2418 10.9391 69.3959 11.1055C69.5514 11.272 69.7736 11.3623 70.0627 11.3623H70.4455L70.046 12.2473H69.897C69.5591 12.2473 69.2521 12.1686 68.9771 12.0189C68.7009 11.8693 68.4902 11.6513 68.3271 11.3661C68.1716 11.0862 68.0933 10.7585 68.0933 10.3908C68.0933 10.0231 68.1768 9.71477 68.3438 9.42707C68.5095 9.1355 68.7433 8.91489 69.0465 8.75104C69.3458 8.58978 69.6978 8.50463 70.0974 8.50463C70.4353 8.50463 70.9247 8.55623 71.5606 8.65557M68.8474 7.00937H69.9085V7.93955H68.8474V7.00937ZM70.3171 7.00937H71.3782V7.93955H70.3171V7.00937Z" fill="#355C4D"/>
<path d="M74.6397 11.046C74.7437 11.1621 74.8735 11.2473 75.0058 11.286C75.1433 11.3311 75.354 11.3479 75.6379 11.3479C75.6661 11.3479 75.6893 11.3595 75.7008 11.3763C75.7111 11.3931 75.7175 11.4111 75.7175 11.4279V12.1684C75.7175 12.1684 75.7175 12.202 75.7008 12.2187C75.6893 12.2355 75.6726 12.2471 75.6379 12.2471C75.3283 12.2471 75.0842 12.1968 74.8953 12.1207C74.7065 12.0355 74.5356 11.8962 74.3635 11.6846C74.2363 11.8627 74.0731 12.0007 73.8791 12.0975C73.6852 12.1968 73.468 12.2471 73.2342 12.2471H72.2643C72.236 12.2471 72.2129 12.2355 72.2013 12.2187C72.1911 12.202 72.1846 12.1852 72.1846 12.1684V11.4279C72.1846 11.4279 72.1846 11.3931 72.2013 11.3763C72.2129 11.3595 72.2296 11.3479 72.2643 11.3479H72.9246C73.1199 11.3479 73.2908 11.2692 73.4295 11.1144C73.567 10.9583 73.6402 10.7519 73.6402 10.4951V8.49414H74.6731V10.6616C74.6731 10.7828 74.6615 10.9131 74.6333 11.046M74.817 6.42478L74.6333 6.98727C74.5497 6.95889 74.4842 6.94212 74.4277 6.94212C74.3545 6.94212 74.2954 6.96405 74.2504 7.01566C74.2055 7.06597 74.1772 7.13177 74.1772 7.22208C74.1772 7.31239 74.2003 7.38334 74.2401 7.43366H75.0893V8.06453H73.1135L73.2458 7.43366H73.6068C73.5554 7.33432 73.5336 7.23885 73.5336 7.13951C73.5336 6.89955 73.6068 6.70474 73.7558 6.5654C73.9048 6.4222 74.104 6.35382 74.3609 6.35382C74.5048 6.35382 74.6538 6.37704 74.817 6.42736" fill="#355C4D"/>
<path d="M78.0107 11.046C78.1148 11.1621 78.2445 11.2473 78.3768 11.286C78.5156 11.3311 78.7263 11.3479 79.0102 11.3479C79.0385 11.3479 79.0616 11.3595 79.0719 11.3763C79.0834 11.3931 79.0886 11.4111 79.0886 11.4279V12.1684C79.0886 12.1684 79.0886 12.202 79.0719 12.2188C79.0616 12.2355 79.0436 12.2471 79.0102 12.2471C78.7006 12.2471 78.4565 12.1968 78.2676 12.1207C78.0788 12.0356 77.9066 11.8962 77.7358 11.6846C77.6086 11.8627 77.4454 12.0007 77.2515 12.0975C77.0575 12.1968 76.8404 12.2471 76.6065 12.2471H75.6353C75.607 12.2471 75.5852 12.2355 75.5736 12.2188C75.5621 12.202 75.5569 12.1852 75.5569 12.1684V11.4279C75.5569 11.4279 75.5569 11.3931 75.5736 11.3763C75.5852 11.3595 75.6019 11.3479 75.6353 11.3479H76.2969C76.4909 11.3479 76.6631 11.2692 76.8005 11.1144C76.9393 10.9583 77.0125 10.7519 77.0125 10.4951V8.4877H78.0454V10.6564C78.0454 10.7777 78.0338 10.908 78.0056 11.0409M76.0156 12.8883H77.0767V13.8185H76.0156V12.8883ZM77.4853 12.8883H78.5464V13.8185H77.4853V12.8883Z" fill="#355C4D"/>
<path d="M83.2132 8.01308C83.641 8.23112 83.9737 8.53043 84.2011 8.90327C84.4298 9.27741 84.5442 9.69541 84.5442 10.1534C84.5442 10.4269 84.5056 10.6991 84.4298 10.9726C84.5133 11.1055 84.6122 11.201 84.7279 11.2642C84.8435 11.3261 85.0066 11.3545 85.2148 11.3545C85.243 11.3545 85.2649 11.3661 85.2764 11.3829C85.288 11.3997 85.2931 11.4164 85.2931 11.4332V12.1737C85.2931 12.1737 85.2931 12.2073 85.2764 12.2254C85.2649 12.2421 85.2482 12.2524 85.2148 12.2524C85.031 12.2524 84.8371 12.2021 84.6212 12.1028C84.4093 12.0047 84.2268 11.8628 84.0714 11.6732C83.7618 12.0576 83.3687 12.2473 82.8843 12.2473H79.011C78.9827 12.2473 78.9609 12.2357 78.9493 12.2189C78.9378 12.2021 78.9326 12.1854 78.9326 12.1686V11.4281C78.9326 11.4281 78.9326 11.3932 78.9493 11.3765C78.9609 11.3597 78.9776 11.3481 79.011 11.3481H79.909C79.67 11.1313 79.5493 10.8372 79.5493 10.4643C79.5493 10.2179 79.6161 9.97795 79.7548 9.75734C79.8923 9.5277 80.0811 9.34966 80.3252 9.21161C80.5706 9.07357 80.8519 9.00519 81.1641 9.00519C81.5136 9.00519 81.809 9.07873 82.0454 9.22839C82.2844 9.37804 82.4681 9.56769 82.5888 9.79733C82.7096 10.0308 82.7713 10.2656 82.7713 10.503C82.7713 10.8423 82.6505 11.1287 82.4051 11.3571H82.5721C82.7096 11.3571 82.8496 11.3171 82.9935 11.241C83.1374 11.1649 83.2607 11.041 83.3597 10.8681C83.4586 10.6953 83.5087 10.4837 83.5087 10.2269C83.5087 9.92635 83.4355 9.65284 83.298 9.3961C83.1593 9.14453 82.9486 8.94327 82.6762 8.79877C82.3974 8.64912 82.0647 8.57558 81.6767 8.57558H81.1783L80.7903 7.69055H81.6934C82.2767 7.69055 82.7854 7.8015 83.2132 8.01953M80.7427 10.0489C80.6323 10.1534 80.5757 10.3224 80.5757 10.5379C80.5757 10.9443 80.7877 11.2191 81.2155 11.3519H81.2425C81.4429 11.3519 81.6035 11.2784 81.7165 11.1339C81.8257 10.9894 81.8823 10.7998 81.8823 10.5714C81.8823 10.4669 81.854 10.365 81.7923 10.2605C81.7307 10.156 81.6485 10.0657 81.5418 9.9973C81.4339 9.93022 81.308 9.8928 81.159 9.8928C80.9868 9.8928 80.8494 9.94957 80.7363 10.0541" fill="#355C4D"/>
<path d="M85.2076 12.2357C85.1807 12.2357 85.1575 12.2254 85.146 12.2073C85.1344 12.1905 85.1293 12.1738 85.1293 12.157V11.4165C85.1293 11.4165 85.1293 11.3829 85.146 11.3661C85.1575 11.3481 85.1742 11.3378 85.2076 11.3378H85.9451V6.56299H86.9677V12.2254H85.2076V12.2357Z" fill="#355C4D"/>
<path d="M88.2167 6.57718H89.2496V12.2396H88.2167V6.57718Z" fill="#355C4D"/>
<mask id="mask1_6495_15385" style="mask-type:luminance" maskUnits="userSpaceOnUse" x="0" y="16" width="3" height="5">
<path d="M0 16.8685H2.61306V20.5015H0V16.8685Z" fill="white"/>
</mask>
<g mask="url(#mask1_6495_15385)">
<path d="M1.25451 20.3402C1.13375 20.3402 1.01042 20.3286 0.889658 20.3054C0.767612 20.2835 0.655844 20.2486 0.551784 20.2099C0.447724 20.1699 0.346234 20.1196 0.258875 20.0654C0.168946 20.0087 0.0931496 19.9558 0.0250607 19.8874C-0.00320234 19.859 -0.00320242 19.8371 0.0134985 19.8139L0.31797 19.4578C0.31797 19.4578 0.362935 19.4294 0.384774 19.4578C0.436162 19.5029 0.495258 19.5429 0.562062 19.5855C0.63015 19.6268 0.700809 19.6642 0.779175 19.6952C0.857541 19.7261 0.934623 19.7571 1.02455 19.7803C1.10806 19.8023 1.20184 19.8139 1.29691 19.8139C1.49732 19.8139 1.65148 19.7687 1.76453 19.681C1.87759 19.5933 1.93026 19.4746 1.93026 19.3301C1.93026 19.2088 1.88529 19.1069 1.79794 19.0308C1.71058 18.9546 1.54742 18.8979 1.32003 18.8643L1.14274 18.8411C0.816431 18.796 0.571055 18.6979 0.393767 18.5366C0.221619 18.3805 0.13169 18.1638 0.13169 17.8838C0.13169 17.7342 0.159953 17.5923 0.211341 17.471C0.261444 17.3497 0.337241 17.2362 0.438731 17.1485C0.540222 17.0607 0.655844 16.9936 0.793306 16.942C0.930768 16.8917 1.08622 16.8685 1.26607 16.8685C1.47676 16.8685 1.67717 16.8969 1.86602 16.9588C2.05487 17.0207 2.21417 17.1033 2.35035 17.2052C2.37219 17.2272 2.37733 17.2504 2.36063 17.2788L2.12168 17.6464C2.12168 17.6464 2.07671 17.68 2.05487 17.6632C1.91613 17.5729 1.78123 17.5071 1.65405 17.4684C1.52815 17.4233 1.39326 17.4 1.24937 17.4C1.07722 17.4 0.951324 17.4452 0.861395 17.5278C0.771467 17.6116 0.729072 17.7161 0.729072 17.849C0.729072 17.9651 0.774036 18.0619 0.866534 18.1406C0.959032 18.2193 1.11705 18.2734 1.34444 18.307L1.52173 18.3302C1.84932 18.3754 2.09341 18.4747 2.26556 18.6347C2.43643 18.7908 2.52122 19.014 2.52122 19.3056C2.52122 19.4552 2.49295 19.5907 2.44285 19.7184C2.38632 19.8448 2.31053 19.9584 2.2039 20.0461C2.09984 20.1416 1.96366 20.2125 1.80436 20.2628C1.64891 20.3144 1.46648 20.3428 1.26093 20.3428" fill="#B18F61"/>
</g>
<path d="M4.53527 20.2834C4.50058 20.2834 4.48388 20.2667 4.48388 20.2318V20.0602C4.41708 20.1441 4.34128 20.2099 4.23979 20.2602C4.14344 20.3118 4.01754 20.3402 3.86723 20.3402C3.74133 20.3402 3.62314 20.317 3.52422 20.2718C3.4253 20.2267 3.34179 20.1673 3.26857 20.0886C3.19534 20.0086 3.1478 19.9157 3.10798 19.8087C3.06815 19.7003 3.05145 19.5855 3.05145 19.4577V17.9599C3.05145 17.9264 3.06815 17.9083 3.10284 17.9083H3.55762C3.59231 17.9083 3.60901 17.9264 3.60901 17.9599V19.33C3.60901 19.4861 3.64883 19.61 3.71821 19.7042C3.78887 19.797 3.90192 19.8474 4.05094 19.8474C4.1884 19.8474 4.30146 19.797 4.37725 19.7042C4.45305 19.61 4.49288 19.4861 4.49288 19.3365V17.9599C4.49288 17.9264 4.50958 17.9083 4.54298 17.9083H4.99905C5.03245 17.9083 5.05043 17.9264 5.05043 17.9599V20.2383C5.05043 20.2718 5.03245 20.2886 4.99905 20.2886H4.54298L4.5327 20.2834H4.53527Z" fill="#B18F61"/>
<mask id="mask2_6495_15385" style="mask-type:luminance" maskUnits="userSpaceOnUse" x="5" y="17" width="3" height="5">
<path d="M5.57343 17.529H7.87559V21.2381H5.57343V17.529Z" fill="white"/>
</mask>
<g mask="url(#mask2_6495_15385)">
<path d="M5.80377 21.1762C5.76908 21.1762 5.75238 21.1594 5.75238 21.1259V17.9534C5.75238 17.9199 5.76908 17.9031 5.80377 17.9031H6.25983C6.29324 17.9031 6.30994 17.9199 6.30994 17.9534V18.1315C6.36646 18.0476 6.44226 17.9818 6.54889 17.9315C6.64781 17.8799 6.7827 17.8528 6.94329 17.8528C7.14884 17.8528 7.32099 17.9031 7.45845 17.996C7.59591 18.0902 7.70383 18.2373 7.76292 18.4256C7.79119 18.5224 7.81303 18.6153 7.82973 18.712C7.84129 18.8075 7.85285 18.9404 7.85285 19.1017C7.85285 19.2629 7.84643 19.3932 7.82973 19.4913C7.81816 19.588 7.79632 19.6809 7.76292 19.7777C7.69997 19.966 7.59591 20.1105 7.45845 20.2073C7.32099 20.3028 7.14884 20.3505 6.94329 20.3505C6.7827 20.3505 6.65038 20.3221 6.54889 20.2718C6.4474 20.2215 6.3716 20.1505 6.30994 20.0705V21.1362C6.30994 21.171 6.29324 21.1878 6.25983 21.1878H5.80377V21.1762ZM6.79683 19.8422C7.02551 19.8422 7.16811 19.7429 7.2362 19.5364C7.2529 19.481 7.26446 19.4216 7.27602 19.3532C7.28116 19.2849 7.2863 19.2036 7.2863 19.09C7.2863 18.9778 7.2863 18.8952 7.27602 18.8269C7.2696 18.7598 7.2529 18.7004 7.2362 18.6437C7.16811 18.4372 7.02551 18.3379 6.79683 18.3379C6.56944 18.3379 6.42042 18.4372 6.35233 18.6437C6.33563 18.7004 6.32407 18.7598 6.31251 18.8269C6.30737 18.8952 6.30223 18.9778 6.30223 19.09C6.30223 19.2036 6.30223 19.2849 6.31251 19.3532C6.31893 19.4216 6.33563 19.481 6.35233 19.5364C6.42042 19.7429 6.56302 19.8422 6.79683 19.8422Z" fill="#B18F61"/>
</g>
<path d="M8.4818 20.2834C8.4484 20.2834 8.4317 20.2667 8.4317 20.2318V17.9535C8.4317 17.9199 8.4484 17.9031 8.4818 17.9031H8.93787C8.97256 17.9031 8.98926 17.9199 8.98926 17.9535V18.1547C9.04578 18.0592 9.12158 17.9883 9.22821 17.9315C9.32713 17.8748 9.45689 17.8464 9.60591 17.8464C9.70098 17.8464 9.79347 17.8631 9.87826 17.898C9.96819 17.9315 10.0389 17.9818 10.1005 18.0412C10.1236 18.0644 10.1288 18.0863 10.1121 18.1096L9.85 18.4373C9.85 18.4373 9.80504 18.4656 9.7832 18.4489C9.72667 18.4153 9.67271 18.3805 9.61619 18.3637C9.56095 18.3418 9.50185 18.3353 9.43376 18.3353C9.27831 18.3353 9.16012 18.3869 9.09075 18.4914C9.02009 18.5959 8.98669 18.743 8.98669 18.9378V20.2241C8.98669 20.2576 8.9687 20.2744 8.9353 20.2744H8.47924L8.48566 20.2808L8.4818 20.2834Z" fill="#B18F61"/>
<path d="M11.4524 20.3402C11.2019 20.3402 10.9848 20.2834 10.8191 20.1673C10.6469 20.0512 10.5287 19.8874 10.4696 19.681C10.4414 19.6023 10.4247 19.5197 10.408 19.4242C10.3913 19.3275 10.3848 19.223 10.3848 19.0965C10.3848 18.9688 10.3913 18.8617 10.4028 18.7675C10.4131 18.6747 10.4362 18.5895 10.4645 18.5108C10.5313 18.3044 10.6469 18.1431 10.8191 18.0244C10.9912 17.9083 11.1955 17.8528 11.4293 17.8528C11.6631 17.8528 11.8853 17.9083 12.0511 18.0244C12.2181 18.1405 12.3414 18.3044 12.4005 18.5056C12.4121 18.5508 12.4236 18.5895 12.4339 18.6321C12.4455 18.6747 12.4519 18.7288 12.457 18.7817C12.4622 18.8385 12.4686 18.8978 12.4737 18.9714V19.223C12.4737 19.2565 12.457 19.2746 12.4172 19.2746H10.9591C10.9591 19.2746 10.9321 19.2849 10.9321 19.3029C10.9321 19.3417 10.9321 19.37 10.9424 19.401C10.9488 19.4294 10.9591 19.4578 10.9655 19.4861C11.0503 19.7261 11.2276 19.8474 11.4974 19.8474C11.6297 19.8474 11.7415 19.8255 11.8288 19.7855C11.92 19.7403 11.9894 19.69 12.0511 19.6242C12.0793 19.5958 12.1025 19.5958 12.1243 19.6126L12.4146 19.8706C12.4146 19.8706 12.4378 19.9158 12.4146 19.9377C12.3157 20.0538 12.1808 20.1557 12.0151 20.2293C11.8494 20.308 11.6605 20.3402 11.4383 20.3402M11.9252 18.8359C11.9252 18.7572 11.9136 18.6914 11.8969 18.6295C11.8635 18.534 11.807 18.4566 11.7248 18.4011C11.6438 18.3444 11.5475 18.316 11.4357 18.316C11.3227 18.316 11.2237 18.3444 11.1428 18.4011C11.058 18.4566 11.004 18.5276 10.9706 18.6295C10.9488 18.6914 10.9424 18.7572 10.9424 18.8359C10.9424 18.8591 10.9539 18.8643 10.9706 18.8643H11.902C11.902 18.8643 11.9303 18.8527 11.9303 18.8359" fill="#B18F61"/>
<path d="M16.029 20.2834C15.9956 20.2834 15.9789 20.2667 15.9789 20.2318V18.8617C15.9789 18.7056 15.9391 18.5817 15.8685 18.4889C15.7901 18.3921 15.6809 18.3444 15.537 18.3444C15.3931 18.3444 15.2801 18.3947 15.2043 18.4889C15.1259 18.5843 15.0886 18.7121 15.0886 18.8617V20.2318C15.0886 20.2667 15.0719 20.2834 15.0385 20.2834H14.5825C14.5491 20.2834 14.5324 20.2667 14.5324 20.2318V18.8617C14.5324 18.7056 14.4926 18.5817 14.4219 18.4889C14.3435 18.3921 14.233 18.3444 14.0904 18.3444C13.9466 18.3444 13.8335 18.3947 13.7577 18.4889C13.6793 18.5843 13.6421 18.7121 13.6421 18.8617V20.2318C13.6421 20.2667 13.6254 20.2834 13.592 20.2834H13.1359C13.1025 20.2834 13.0858 20.2667 13.0858 20.2318V17.9535C13.0858 17.9199 13.1025 17.9031 13.1359 17.9031H13.592C13.6254 17.9031 13.6421 17.9199 13.6421 17.9535V18.1263C13.6935 18.0476 13.7693 17.9883 13.8759 17.9315C13.9825 17.8748 14.1097 17.8464 14.2652 17.8464C14.4026 17.8464 14.5324 17.8748 14.6416 17.9315C14.7521 17.9883 14.842 18.0644 14.9152 18.1663C15.0103 18.067 15.1143 17.9883 15.2351 17.9315C15.3572 17.8748 15.5023 17.8464 15.6745 17.8464C15.8119 17.8464 15.9365 17.8696 16.0406 17.9148C16.1447 17.9599 16.2346 18.0193 16.313 18.0979C16.3862 18.1779 16.4401 18.2708 16.48 18.3779C16.5185 18.485 16.5365 18.6011 16.5365 18.7288V20.2267C16.5365 20.2602 16.5185 20.277 16.4851 20.277H16.029L16.0355 20.2834H16.029Z" fill="#B18F61"/>
<path d="M18.1593 20.3402C17.9087 20.3402 17.6916 20.2834 17.5259 20.1673C17.3538 20.0512 17.2356 19.8874 17.1765 19.681C17.1482 19.6023 17.1315 19.5197 17.1148 19.4242C17.0981 19.3275 17.0917 19.223 17.0917 19.0965C17.0917 18.9688 17.0981 18.8617 17.1084 18.7675C17.1199 18.6747 17.1431 18.5895 17.1713 18.5108C17.2381 18.3044 17.3538 18.1431 17.5259 18.0244C17.6968 17.9083 17.9023 17.8528 18.1361 17.8528C18.3699 17.8528 18.5922 17.9083 18.7579 18.0244C18.9249 18.1405 19.0483 18.3044 19.1074 18.5056C19.1189 18.5508 19.1305 18.5895 19.1408 18.6321C19.1523 18.6747 19.1575 18.7288 19.1639 18.7817C19.169 18.8385 19.1754 18.8978 19.1806 18.9714V19.223C19.1806 19.2565 19.1639 19.2746 19.1241 19.2746H17.6659C17.6659 19.2746 17.6377 19.2849 17.6377 19.3029C17.6377 19.3417 17.6377 19.37 17.6492 19.401C17.6544 19.4294 17.6659 19.4578 17.6724 19.4861C17.7559 19.7261 17.9331 19.8474 18.2042 19.8474C18.3365 19.8474 18.4483 19.8255 18.5357 19.7855C18.6256 19.7403 18.6963 19.69 18.7579 19.6242C18.7862 19.5958 18.8093 19.5958 18.8311 19.6126L19.1215 19.8706C19.1215 19.8706 19.1433 19.9158 19.1215 19.9377C19.0226 20.0538 18.8877 20.1557 18.7219 20.2293C18.5562 20.308 18.3674 20.3402 18.1451 20.3402M18.632 18.8359C18.632 18.7572 18.6205 18.6914 18.6038 18.6295C18.5704 18.534 18.5138 18.4566 18.4316 18.4011C18.3507 18.3444 18.2543 18.316 18.1426 18.316C18.0295 18.316 17.9306 18.3444 17.8496 18.4011C17.7649 18.4566 17.7109 18.5276 17.6775 18.6295C17.6544 18.6914 17.6492 18.7572 17.6492 18.8359C17.6492 18.8591 17.6608 18.8643 17.6775 18.8643H18.6089C18.6089 18.8643 18.6372 18.8527 18.6372 18.8359" fill="#B18F61"/>
<path d="M21.8216 16.9793C21.8332 16.9444 21.855 16.9277 21.8897 16.9277H22.3445C22.3792 16.9277 22.401 16.9444 22.4126 16.9793L23.5444 20.2381C23.556 20.2717 23.5444 20.2885 23.5097 20.2885H23.0267C22.992 20.2885 22.9701 20.2717 22.9586 20.2381L22.7363 19.5853H21.4748L21.2525 20.2381C21.2422 20.2717 21.2191 20.2885 21.1857 20.2885H20.7065C20.6731 20.2885 20.6616 20.2717 20.6731 20.2381L21.8216 16.9793ZM22.5565 19.0615L22.112 17.7585H22.094L21.6443 19.0615H22.5565Z" fill="#B18F61"/>
<path d="M25.407 20.2834C25.3736 20.2834 25.3569 20.2667 25.3569 20.2318V20.0602C25.2888 20.1441 25.213 20.2099 25.1116 20.2602C25.0165 20.3118 24.8893 20.3402 24.7403 20.3402C24.6131 20.3402 24.4949 20.317 24.3973 20.2718C24.2983 20.2267 24.2136 20.1673 24.1403 20.0886C24.0671 20.0086 24.0196 19.9157 23.9797 19.8087C23.9412 19.7003 23.9245 19.5855 23.9245 19.4577V17.9599C23.9245 17.9264 23.9412 17.9083 23.9746 17.9083H24.4307C24.4641 17.9083 24.4808 17.9264 24.4808 17.9599V19.33C24.4808 19.4861 24.5206 19.61 24.5913 19.7042C24.6619 19.797 24.7737 19.8474 24.9227 19.8474C25.0615 19.8474 25.1732 19.797 25.249 19.7042C25.3261 19.61 25.3646 19.4861 25.3646 19.3365V17.9599C25.3646 17.9264 25.3813 17.9083 25.416 17.9083H25.8721C25.9055 17.9083 25.9222 17.9264 25.9222 17.9599V20.2383C25.9222 20.2718 25.9055 20.2886 25.8721 20.2886H25.416L25.4045 20.2834H25.407Z" fill="#B18F61"/>
<path d="M27.321 20.317C27.0821 20.317 26.9099 20.2603 26.811 20.1441C26.7134 20.0293 26.662 19.8539 26.662 19.6216V18.3663C26.662 18.3663 26.6504 18.338 26.6337 18.338H26.4795C26.4461 18.338 26.4282 18.3212 26.4282 18.2877V17.96C26.4282 17.9264 26.4461 17.9084 26.4795 17.9084H26.6337C26.6337 17.9084 26.662 17.898 26.662 17.88V17.2272C26.662 17.1936 26.6787 17.1768 26.7134 17.1768H27.1694C27.2028 17.1768 27.2195 17.1936 27.2195 17.2272V17.88C27.2195 17.88 27.2311 17.9084 27.2478 17.9084H27.5625C27.5972 17.9084 27.6139 17.9264 27.6139 17.96V18.2877C27.6139 18.3212 27.5972 18.338 27.5625 18.338H27.2478C27.2478 18.338 27.2195 18.3496 27.2195 18.3663V19.6049C27.2195 19.69 27.2362 19.7494 27.2761 19.7777C27.3095 19.8113 27.3711 19.8229 27.4418 19.8229H27.5625C27.5972 19.8229 27.6139 19.8397 27.6139 19.8732V20.2693C27.6139 20.3028 27.5972 20.3196 27.5625 20.3196H27.3236L27.321 20.317Z" fill="#B18F61"/>
<path d="M29.7014 20.2835C29.668 20.2835 29.6513 20.2667 29.6513 20.2319V18.8618C29.6513 18.7057 29.6114 18.5818 29.5421 18.4889C29.4624 18.3922 29.3532 18.3445 29.2093 18.3445C29.0655 18.3445 28.9537 18.3948 28.8766 18.4889C28.7982 18.5844 28.7623 18.7121 28.7623 18.8618V20.2319C28.7623 20.2667 28.7443 20.2835 28.7109 20.2835H28.2548C28.2214 20.2835 28.2047 20.2667 28.2047 20.2319V16.973C28.2047 16.9395 28.2214 16.9227 28.2548 16.9227H28.7109C28.7443 16.9227 28.7623 16.9395 28.7623 16.973V18.1264C28.8124 18.0477 28.8882 17.9884 28.9948 17.9316C29.1027 17.8748 29.2286 17.8465 29.3841 17.8465C29.51 17.8465 29.6282 17.8697 29.7271 17.9148C29.826 17.96 29.9159 18.0193 29.9891 18.098C30.0624 18.178 30.115 18.2709 30.1549 18.378C30.1947 18.4851 30.2114 18.6012 30.2114 18.7289V20.2267C30.2114 20.2603 30.1947 20.2771 30.1613 20.2771H29.7052V20.2835H29.7014Z" fill="#B18F61"/>
<path d="M31.8273 20.3402C31.5832 20.3402 31.3777 20.2835 31.2055 20.1673C31.0347 20.0512 30.9165 19.8874 30.8509 19.681C30.8227 19.5958 30.806 19.5081 30.7893 19.4178C30.7777 19.3275 30.7726 19.223 30.7726 19.0901C30.7726 18.9572 30.7777 18.8501 30.7893 18.7624C30.8008 18.6747 30.8227 18.5895 30.8509 18.4992C30.919 18.2928 31.0347 18.1315 31.2055 18.0128C31.3777 17.898 31.5832 17.8412 31.8273 17.8412C32.0727 17.8412 32.2731 17.898 32.444 18.0128C32.6161 18.1289 32.7343 18.2928 32.7985 18.4992C32.8268 18.5844 32.8435 18.6721 32.8615 18.7624C32.8718 18.8527 32.8833 18.9572 32.8833 19.0901C32.8833 19.223 32.8782 19.3301 32.8615 19.4178C32.8499 19.5081 32.8268 19.5907 32.7985 19.681C32.7317 19.8874 32.6161 20.0487 32.444 20.1673C32.2731 20.2835 32.0676 20.3402 31.8273 20.3402ZM31.8273 19.8422C31.9378 19.8422 32.0329 19.8139 32.1061 19.7571C32.1793 19.7003 32.2333 19.6242 32.2731 19.5287C32.2949 19.4668 32.3065 19.401 32.3116 19.3391C32.3181 19.2707 32.3232 19.1946 32.3232 19.0875C32.3232 18.9804 32.3232 18.9043 32.3116 18.8411C32.3065 18.7792 32.2898 18.7147 32.2731 18.6463C32.2333 18.5482 32.1832 18.4747 32.1061 18.4179C32.0329 18.3612 31.9404 18.3328 31.8273 18.3328C31.7155 18.3328 31.623 18.3612 31.5434 18.4179C31.465 18.4747 31.4111 18.5444 31.3777 18.6463C31.3545 18.7147 31.3443 18.774 31.3378 18.8411C31.3327 18.9043 31.3276 18.9856 31.3276 19.0875C31.3276 19.1894 31.3276 19.2707 31.3378 19.3391C31.3443 19.4075 31.361 19.4668 31.3777 19.5287C31.4111 19.6268 31.4727 19.7003 31.5434 19.7571C31.623 19.8139 31.7091 19.8422 31.8273 19.8422Z" fill="#B18F61"/>
<path d="M33.5187 20.2834C33.4853 20.2834 33.4686 20.2667 33.4686 20.2318V17.9535C33.4686 17.9199 33.4853 17.9031 33.5187 17.9031H33.9748C34.0082 17.9031 34.0262 17.9199 34.0262 17.9535V18.1547C34.0814 18.0592 34.1585 17.9883 34.2651 17.9315C34.3628 17.8748 34.4925 17.8464 34.6416 17.8464C34.7379 17.8464 34.8304 17.8631 34.9152 17.898C35.0051 17.9315 35.0758 17.9818 35.1374 18.0412C35.1593 18.0644 35.1657 18.0863 35.149 18.1096L34.8869 18.4373C34.8869 18.4373 34.842 18.4656 34.8188 18.4489C34.7636 18.4153 34.7096 18.3805 34.6531 18.3637C34.5966 18.3418 34.5375 18.3353 34.4707 18.3353C34.3152 18.3353 34.197 18.3869 34.1264 18.4914C34.057 18.5959 34.0223 18.743 34.0223 18.9378V20.2241C34.0223 20.2576 34.0056 20.2744 33.9722 20.2744H33.5162L33.5213 20.2808L33.5187 20.2834Z" fill="#B18F61"/>
<path d="M35.5983 17.4592C35.5649 17.4592 35.5482 17.4424 35.5482 17.4089V16.9793C35.5482 16.9444 35.5649 16.9277 35.5983 16.9277H36.0544C36.0878 16.9277 36.1058 16.9444 36.1058 16.9793V17.4089C36.1058 17.4424 36.0878 17.4592 36.0544 17.4592H35.5983ZM35.5983 20.2833C35.5649 20.2833 35.5482 20.2665 35.5482 20.2317V17.9533C35.5482 17.9198 35.5649 17.903 35.5983 17.903H36.0544C36.0878 17.903 36.1058 17.9198 36.1058 17.9533V20.2317C36.1058 20.2665 36.0878 20.2833 36.0544 20.2833H35.5983Z" fill="#B18F61"/>
<path d="M37.5123 20.317C37.2734 20.317 37.1012 20.2603 37.0023 20.1441C36.9046 20.0293 36.8533 19.8539 36.8533 19.6216V18.3663C36.8533 18.3663 36.843 18.338 36.825 18.338H36.6708C36.6374 18.338 36.6207 18.3212 36.6207 18.2877V17.96C36.6207 17.9264 36.6374 17.9084 36.6708 17.9084H36.825C36.825 17.9084 36.8533 17.898 36.8533 17.88V17.2272C36.8533 17.1936 36.8712 17.1768 36.9046 17.1768H37.3607C37.3941 17.1768 37.4108 17.1936 37.4108 17.2272V17.88C37.4108 17.88 37.4224 17.9084 37.4391 17.9084H37.7538C37.7885 17.9084 37.8052 17.9264 37.8052 17.96V18.2877C37.8052 18.3212 37.7885 18.338 37.7538 18.338H37.4391C37.4391 18.338 37.4108 18.3496 37.4108 18.3663V19.6049C37.4108 19.69 37.4275 19.7494 37.4673 19.7777C37.5007 19.8113 37.5624 19.8229 37.6331 19.8229H37.7538C37.7885 19.8229 37.8052 19.8397 37.8052 19.8732V20.2693C37.8052 20.3028 37.7885 20.3196 37.7538 20.3196H37.5149L37.5123 20.317Z" fill="#B18F61"/>
<mask id="mask3_6495_15385" style="mask-type:luminance" maskUnits="userSpaceOnUse" x="37" y="17" width="4" height="5">
<path d="M37.8026 17.8592H40.4336V21.2381H37.8026V17.8592Z" fill="white"/>
</mask>
<g mask="url(#mask3_6495_15385)">
<path d="M38.4782 21.1761C38.4435 21.1761 38.4268 21.1594 38.4268 21.1258V20.7297C38.4268 20.6962 38.4435 20.6781 38.4782 20.6781H38.5681C38.6632 20.6781 38.7338 20.6562 38.7904 20.6111C38.8405 20.5659 38.8854 20.4949 38.9227 20.393L38.9895 20.1931L38.1223 17.9534C38.112 17.9198 38.1223 17.9031 38.1621 17.9031H38.649C38.6773 17.9031 38.7004 17.9198 38.7107 17.9534L39.249 19.508H39.2606L39.7693 17.9534C39.7809 17.9198 39.7976 17.9031 39.831 17.9031H40.2986C40.332 17.9031 40.3487 17.9198 40.3384 17.9534L39.434 20.433C39.3839 20.5711 39.3299 20.6962 39.2798 20.7839C39.2284 20.8794 39.1693 20.9504 39.1077 21.0123C39.046 21.0691 38.9754 21.1116 38.9021 21.1336C38.8238 21.1568 38.7415 21.1736 38.6413 21.1736H38.4807L38.4782 21.1761Z" fill="#B18F61"/>
</g>
<path d="M41.9544 16.973C41.9544 16.9395 41.9711 16.9227 42.0057 16.9227H44.1024C44.1358 16.9227 44.1525 16.9395 44.1525 16.973V17.4027C44.1525 17.4375 44.1358 17.4543 44.1024 17.4543H42.5659C42.5659 17.4543 42.5376 17.4646 42.5376 17.4826V18.3354C42.5376 18.3354 42.5479 18.3638 42.5659 18.3638H43.857C43.8917 18.3638 43.9084 18.3806 43.9084 18.4154V18.845C43.9084 18.8786 43.8917 18.8953 43.857 18.8953H42.5659C42.5659 18.8953 42.5376 18.9069 42.5376 18.9237V20.2435C42.5376 20.2771 42.5209 20.2938 42.4862 20.2938H42.0019C41.9685 20.2938 41.9518 20.2771 41.9518 20.2435V16.9795L41.9544 16.973Z" fill="#B18F61"/>
<path d="M45.4518 20.3402C45.2077 20.3402 45.0021 20.2835 44.83 20.1673C44.6591 20.0512 44.5409 19.8874 44.4754 19.681C44.4471 19.5958 44.4304 19.5081 44.4137 19.4178C44.4022 19.3275 44.3919 19.223 44.3919 19.0901C44.3919 18.9572 44.397 18.8501 44.4137 18.7624C44.4253 18.6721 44.4471 18.5895 44.4754 18.4992C44.5435 18.2928 44.6591 18.1315 44.83 18.0128C45.0021 17.898 45.2077 17.8412 45.4518 17.8412C45.6972 17.8412 45.8976 17.898 46.0684 18.0128C46.2406 18.1289 46.3588 18.2928 46.423 18.4992C46.4513 18.5844 46.468 18.6721 46.486 18.7624C46.4962 18.8527 46.5078 18.9572 46.5078 19.0901C46.5078 19.223 46.5027 19.3301 46.486 19.4178C46.4744 19.5081 46.4513 19.5907 46.423 19.681C46.3562 19.8874 46.2406 20.0487 46.0684 20.1673C45.8976 20.2835 45.692 20.3402 45.4518 20.3402ZM45.4518 19.8422C45.5623 19.8422 45.6573 19.8139 45.7306 19.7571C45.8038 19.7003 45.8577 19.6242 45.8976 19.5287C45.9194 19.4668 45.931 19.401 45.9361 19.3391C45.9425 19.2707 45.9477 19.1946 45.9477 19.0875C45.9477 18.9804 45.9477 18.9043 45.9361 18.8411C45.931 18.7792 45.9143 18.7147 45.8976 18.6463C45.8577 18.5482 45.8076 18.4747 45.7306 18.4179C45.6573 18.3612 45.5648 18.3328 45.4518 18.3328C45.34 18.3328 45.2475 18.3612 45.1679 18.4179C45.0895 18.4747 45.0355 18.5444 45.0021 18.6463C44.979 18.7147 44.9687 18.774 44.9623 18.8411C44.9572 18.9043 44.9507 18.9856 44.9507 19.0875C44.9507 19.1894 44.9507 19.2707 44.9623 19.3391C44.9687 19.4075 44.9854 19.4668 45.0021 19.5287C45.0355 19.6268 45.0972 19.7003 45.1679 19.7571C45.2475 19.8139 45.3336 19.8422 45.4518 19.8422Z" fill="#B18F61"/>
<path d="M47.1464 20.2834C47.113 20.2834 47.0963 20.2667 47.0963 20.2318V17.9535C47.0963 17.9199 47.113 17.9031 47.1464 17.9031H47.6024C47.6371 17.9031 47.6538 17.9199 47.6538 17.9535V18.1547C47.7103 18.0592 47.7861 17.9883 47.8928 17.9315C47.9917 17.8748 48.1202 17.8464 48.2705 17.8464C48.3655 17.8464 48.458 17.8631 48.5428 17.898C48.6327 17.9315 48.7034 17.9818 48.7651 18.0412C48.7882 18.0644 48.7933 18.0863 48.7766 18.1096L48.5146 18.4373C48.5146 18.4373 48.4696 18.4656 48.4477 18.4489C48.3912 18.4153 48.3373 18.3805 48.2807 18.3637C48.2242 18.3418 48.1651 18.3353 48.0983 18.3353C47.9429 18.3353 47.8247 18.3869 47.7553 18.4914C47.6846 18.5959 47.6512 18.743 47.6512 18.9378V20.2241C47.6512 20.2576 47.6333 20.2744 47.5999 20.2744H47.1438L47.1502 20.2808L47.1464 20.2834Z" fill="#B18F61"/>
<path d="M50.3975 16.9277H50.878C50.9127 16.9277 50.9294 16.9444 50.9294 16.9793V20.2381C50.9294 20.2717 50.9127 20.2885 50.878 20.2885H50.3975C50.3641 20.2885 50.3461 20.2717 50.3461 20.2381V16.9793C50.3461 16.9444 50.3641 16.9277 50.3975 16.9277Z" fill="#B18F61"/>
<path d="M53.1557 20.2834C53.1223 20.2834 53.1043 20.2667 53.1043 20.2318V18.8617C53.1043 18.7056 53.0657 18.5817 52.9951 18.4889C52.9167 18.3921 52.8062 18.3444 52.6623 18.3444C52.5197 18.3444 52.4067 18.3947 52.3309 18.4889C52.2525 18.5843 52.2153 18.7121 52.2153 18.8617V20.2318C52.2153 20.2667 52.1986 20.2834 52.1652 20.2834H51.7091C51.6744 20.2834 51.6577 20.2667 51.6577 20.2318V17.9535C51.6577 17.9199 51.6744 17.9031 51.7091 17.9031H52.1652C52.1986 17.9031 52.2153 17.9199 52.2153 17.9535V18.1263C52.2667 18.0476 52.3425 17.9883 52.4491 17.9315C52.5557 17.8748 52.6829 17.8464 52.8371 17.8464C52.9642 17.8464 53.0824 17.8696 53.1814 17.9148C53.279 17.9599 53.3689 18.0193 53.4422 18.0979C53.5154 18.1779 53.5693 18.2708 53.6092 18.3779C53.6477 18.485 53.6644 18.6011 53.6644 18.7288V20.2267C53.6644 20.2602 53.6477 20.277 53.6143 20.277H53.1582V20.2834H53.1557Z" fill="#B18F61"/>
<path d="M55.8132 20.2834C55.7798 20.2834 55.7631 20.2666 55.7631 20.2318V20.0537C55.7066 20.1389 55.6308 20.2034 55.5229 20.255C55.4253 20.3053 55.2904 20.3337 55.1298 20.3337C54.9242 20.3337 54.7521 20.2834 54.6146 20.1892C54.4759 20.0963 54.3692 19.9492 54.3101 19.7596C54.2819 19.6641 54.26 19.5712 54.2433 19.4745C54.2254 19.379 54.2202 19.2461 54.2202 19.0848C54.2202 18.9236 54.2254 18.7933 54.2433 18.6939C54.26 18.5959 54.2767 18.5056 54.3101 18.4088C54.3718 18.2192 54.4759 18.076 54.6146 17.9792C54.7521 17.8837 54.9242 17.8347 55.1298 17.8347C55.2904 17.8347 55.4227 17.8631 55.5229 17.9147C55.6244 17.965 55.7002 18.036 55.7631 18.1147V16.9613C55.7631 16.9278 55.7798 16.911 55.8132 16.911H56.2693C56.3027 16.911 56.3194 16.9278 56.3194 16.9613V20.2215C56.3194 20.255 56.3027 20.2718 56.2693 20.2718H55.8132V20.2834ZM55.2698 19.8422C55.4985 19.8422 55.6475 19.7428 55.7143 19.5364C55.731 19.4809 55.7426 19.4216 55.7541 19.3532C55.7593 19.2848 55.7657 19.2035 55.7657 19.09C55.7657 18.9778 55.7657 18.8952 55.7541 18.8268C55.7426 18.7597 55.731 18.7004 55.7143 18.6436C55.6475 18.4372 55.5036 18.3379 55.2698 18.3379C55.036 18.3379 54.8985 18.4372 54.8304 18.6436C54.8137 18.7004 54.8035 18.7597 54.7919 18.8268C54.7855 18.8952 54.7803 18.9778 54.7803 19.09C54.7803 19.2035 54.7803 19.2848 54.7919 19.3532C54.797 19.4216 54.8137 19.4809 54.8304 19.5364C54.8985 19.7428 55.0424 19.8422 55.2698 19.8422Z" fill="#B18F61"/>
<path d="M58.4861 20.2834C58.4527 20.2834 58.436 20.2667 58.436 20.2318V20.0602C58.3679 20.1441 58.2921 20.2099 58.1906 20.2602C58.0955 20.3118 57.9683 20.3402 57.8193 20.3402C57.6934 20.3402 57.5752 20.317 57.4763 20.2718C57.3774 20.2267 57.2926 20.1673 57.2194 20.0886C57.1474 20.0086 57.0986 19.9157 57.0601 19.8087C57.0202 19.7003 57.0035 19.5855 57.0035 19.4577V17.9599C57.0035 17.9264 57.0202 17.9083 57.0536 17.9083H57.5097C57.5431 17.9083 57.5611 17.9264 57.5611 17.9599V19.33C57.5611 19.4861 57.5996 19.61 57.6703 19.7042C57.741 19.797 57.8527 19.8474 58.003 19.8474C58.1405 19.8474 58.2535 19.797 58.3293 19.7042C58.4051 19.61 58.4437 19.4861 58.4437 19.3365V17.9599C58.4437 17.9264 58.4617 17.9083 58.4951 17.9083H58.9511C58.9845 17.9083 59.0012 17.9264 59.0012 17.9599V20.2383C59.0012 20.2718 58.9845 20.2886 58.9511 20.2886H58.4951L58.4835 20.2834H58.4861Z" fill="#B18F61"/>
<path d="M60.585 20.3401C60.3396 20.3401 60.1341 20.3001 59.9683 20.224C59.8013 20.1479 59.6639 20.0563 59.5688 19.966C59.5457 19.944 59.5457 19.9208 59.5688 19.8989L59.8527 19.6047C59.8527 19.6047 59.8977 19.5815 59.9208 19.6047C60.0043 19.6834 60.1084 19.7492 60.2356 19.7996C60.3615 19.8512 60.4861 19.8782 60.612 19.8782C60.7623 19.8782 60.8689 19.8512 60.9396 19.7996C61.0089 19.7492 61.0488 19.6783 61.0488 19.5996C61.0488 19.526 61.0205 19.4719 60.964 19.4267C60.9074 19.3815 60.8034 19.3532 60.6544 19.3364L60.3987 19.3132C60.1533 19.2848 59.9709 19.2151 59.8553 19.0964C59.7345 18.9803 59.6729 18.8165 59.6729 18.6101C59.6729 18.3804 59.7512 18.1972 59.9118 18.0643C60.066 17.9314 60.2946 17.8631 60.5927 17.8631C60.7815 17.8631 60.9473 17.8915 61.0963 17.9482C61.2453 18.005 61.3751 18.0695 61.4791 18.1598C61.5074 18.183 61.5074 18.205 61.4907 18.2282L61.2517 18.5197C61.2517 18.5197 61.2068 18.5481 61.1837 18.5301C61.1053 18.4797 61.0179 18.432 60.9049 18.392C60.7931 18.352 60.6826 18.3301 60.5619 18.3301C60.4411 18.3301 60.3563 18.352 60.2946 18.3972C60.233 18.4423 60.2047 18.5017 60.2047 18.5752C60.2047 18.6488 60.233 18.6978 60.2831 18.7429C60.3345 18.7816 60.4385 18.8165 60.5927 18.8268L60.8483 18.85C61.0989 18.8784 61.2826 18.9494 61.4033 19.068C61.5241 19.1893 61.5806 19.348 61.5806 19.548C61.5806 19.7879 61.4958 19.9776 61.3301 20.1272C61.1644 20.2769 60.9139 20.3504 60.5876 20.3504" fill="#B18F61"/>
<path d="M62.8489 20.317C62.6099 20.317 62.4378 20.2603 62.3401 20.1441C62.2412 20.0293 62.1911 19.8539 62.1911 19.6216V18.3663C62.1911 18.3663 62.1795 18.338 62.1628 18.338H62.0074C61.974 18.338 61.9573 18.3212 61.9573 18.2877V17.96C61.9573 17.9264 61.974 17.9084 62.0074 17.9084H62.1628C62.1628 17.9084 62.1911 17.898 62.1911 17.88V17.2272C62.1911 17.1936 62.2078 17.1768 62.2412 17.1768H62.6973C62.7307 17.1768 62.7474 17.1936 62.7474 17.2272V17.88C62.7474 17.88 62.7589 17.9084 62.7756 17.9084H63.0917C63.1251 17.9084 63.1418 17.9264 63.1418 17.96V18.2877C63.1418 18.3212 63.1251 18.338 63.0917 18.338H62.7756C62.7756 18.338 62.7474 18.3496 62.7474 18.3663V19.6049C62.7474 19.69 62.7641 19.7494 62.8039 19.7777C62.8373 19.8113 62.9002 19.8229 62.9696 19.8229H63.0917C63.1251 19.8229 63.1418 19.8397 63.1418 19.8732V20.2693C63.1418 20.3028 63.1251 20.3196 63.0917 20.3196H62.8514L62.8489 20.317Z" fill="#B18F61"/>
<path d="M63.7808 20.2834C63.7474 20.2834 63.7307 20.2667 63.7307 20.2318V17.9535C63.7307 17.9199 63.7474 17.9031 63.7808 17.9031H64.2369C64.2716 17.9031 64.2883 17.9199 64.2883 17.9535V18.1547C64.3448 18.0592 64.4206 17.9883 64.5272 17.9315C64.6261 17.8748 64.7546 17.8464 64.9049 17.8464C65 17.8464 65.0925 17.8631 65.1773 17.898C65.2672 17.9315 65.3379 17.9818 65.3995 18.0412C65.4227 18.0644 65.4278 18.0863 65.4111 18.1096L65.149 18.4373C65.149 18.4373 65.104 18.4656 65.0822 18.4489C65.0257 18.4153 64.9717 18.3805 64.9152 18.3637C64.8587 18.3418 64.7996 18.3353 64.7328 18.3353C64.5773 18.3353 64.4591 18.3869 64.3898 18.4914C64.3191 18.5959 64.2857 18.743 64.2857 18.9378V20.2241C64.2857 20.2576 64.2677 20.2744 64.2343 20.2744H63.7782L63.7847 20.2808L63.7808 20.2834Z" fill="#B18F61"/>
<path d="M65.8606 17.4592C65.8272 17.4592 65.8105 17.4424 65.8105 17.4089V16.9793C65.8105 16.9444 65.8272 16.9277 65.8606 16.9277H66.3167C66.3514 16.9277 66.3681 16.9444 66.3681 16.9793V17.4089C66.3681 17.4424 66.3514 17.4592 66.3167 17.4592H65.8606ZM65.8606 20.2833C65.8272 20.2833 65.8105 20.2665 65.8105 20.2317V17.9533C65.8105 17.9198 65.8272 17.903 65.8606 17.903H66.3167C66.3514 17.903 66.3681 17.9198 66.3681 17.9533V20.2317C66.3681 20.2665 66.3514 20.2833 66.3167 20.2833H65.8606Z" fill="#B18F61"/>
<path d="M68.4977 20.2835C68.4643 20.2835 68.4476 20.2667 68.4476 20.2319V20.0603C68.3911 20.1442 68.3088 20.21 68.1971 20.2603C68.084 20.3119 67.9466 20.3403 67.7808 20.3403C67.6768 20.3403 67.5689 20.3222 67.4764 20.2938C67.3839 20.2667 67.2939 20.2216 67.2207 20.1622C67.1475 20.1029 67.0935 20.0294 67.0486 19.9378C67.0036 19.8474 66.9805 19.7378 66.9805 19.6165C66.9805 19.3585 67.0653 19.1637 67.2374 19.0476C67.4083 18.9315 67.6369 18.8644 67.9299 18.8644H68.4142C68.4142 18.8644 68.4412 18.8528 68.4412 18.836V18.7199C68.4412 18.5818 68.4026 18.4799 68.332 18.4154C68.2536 18.3522 68.1213 18.3186 67.9209 18.3186C67.7885 18.3186 67.6768 18.3354 67.5946 18.3638C67.5098 18.3973 67.4391 18.4373 67.3839 18.4799C67.3556 18.5018 67.3325 18.5018 67.3158 18.4683L67.1333 18.1406C67.1333 18.1406 67.1218 18.0903 67.1436 18.0787C67.24 18.0103 67.3556 17.9574 67.4879 17.9122C67.6202 17.8671 67.786 17.8439 67.9864 17.8439C68.3461 17.8439 68.6018 17.9122 68.7508 18.0451C68.9011 18.178 68.9743 18.3831 68.9743 18.6747V20.2293C68.9743 20.2629 68.9563 20.2809 68.9229 20.2809H68.5118L68.4951 20.2861L68.4977 20.2835ZM67.9093 19.8874C68.0814 19.8874 68.2086 19.8539 68.2986 19.7881C68.3885 19.721 68.4309 19.6217 68.4309 19.4836V19.2991C68.4309 19.2991 68.4193 19.2708 68.4026 19.2708H68.0082C67.8309 19.2708 67.7038 19.2991 67.6202 19.3507C67.5355 19.4011 67.4995 19.4836 67.4995 19.5959C67.4995 19.792 67.6305 19.89 67.9093 19.89" fill="#B18F61"/>
<path d="M70.2935 20.317C70.0597 20.317 69.894 20.2603 69.7951 20.1506C69.6974 20.0397 69.6461 19.8642 69.6461 19.6384V16.9821C69.6461 16.9485 69.6628 16.9305 69.6974 16.9305H70.1522C70.1869 16.9305 70.2036 16.9485 70.2036 16.9821V19.6075C70.2036 19.6926 70.2203 19.7455 70.2537 19.7803C70.2884 19.8139 70.3385 19.8255 70.4092 19.8255H70.5132C70.5466 19.8255 70.5633 19.8423 70.5633 19.8758V20.2719C70.5633 20.3054 70.5466 20.3222 70.5132 20.3222H70.2961L70.2935 20.317Z" fill="#B18F61"/>
<path d="M73.3072 20.3402C73.1864 20.3402 73.0631 20.3286 72.9423 20.3054C72.8267 20.2835 72.7085 20.2486 72.6045 20.2099C72.5004 20.1699 72.3989 20.1196 72.3115 20.0654C72.2216 20.0087 72.1458 19.9558 72.0777 19.8874C72.0495 19.859 72.0495 19.8371 72.0662 19.8139L72.3706 19.4578C72.3706 19.4578 72.4156 19.4294 72.4374 19.4578C72.4888 19.5029 72.5479 19.5429 72.6147 19.5855C72.6828 19.6268 72.7535 19.6642 72.8318 19.6952C72.9115 19.7261 72.9873 19.7571 73.0772 19.7803C73.162 19.8023 73.2545 19.8139 73.3496 19.8139C73.55 19.8139 73.7042 19.7687 73.8172 19.681C73.9303 19.5933 73.9829 19.4746 73.9829 19.3301C73.9829 19.2088 73.938 19.1069 73.8506 19.0308C73.7632 18.9546 73.6001 18.8979 73.3727 18.8643L73.1954 18.8411C72.8691 18.796 72.6237 18.6979 72.4464 18.5366C72.2743 18.3805 72.1844 18.1638 72.1844 17.8838C72.1844 17.7342 72.2126 17.5923 72.264 17.471C72.3141 17.3497 72.3899 17.2362 72.4914 17.1485C72.5929 17.0607 72.7085 16.9936 72.846 16.942C72.9834 16.8917 73.1389 16.8685 73.3187 16.8685C73.5307 16.8685 73.7298 16.8969 73.9187 16.9588C74.1075 17.0207 74.2681 17.1033 74.403 17.2052C74.4249 17.2272 74.4313 17.2504 74.4133 17.2788L74.1744 17.6464C74.1744 17.6464 74.1294 17.68 74.1075 17.6632C73.9688 17.5729 73.8339 17.5071 73.708 17.4684C73.5808 17.4233 73.4459 17.4 73.302 17.4C73.1299 17.4 73.004 17.4452 72.9141 17.5278C72.8241 17.6116 72.7817 17.7161 72.7817 17.849C72.7817 17.9651 72.8267 18.0619 72.9192 18.1406C73.0117 18.2193 73.1697 18.2734 73.3984 18.307L73.5757 18.3302C73.902 18.3754 74.1461 18.4747 74.3182 18.6347C74.4904 18.7908 74.5739 19.014 74.5739 19.3056C74.5739 19.4552 74.5456 19.5907 74.4955 19.7184C74.439 19.8448 74.3632 19.9584 74.2566 20.0461C74.1525 20.1416 74.0176 20.2125 73.857 20.2628C73.7016 20.3144 73.5192 20.3428 73.3136 20.3428" fill="#B18F61"/>
<path d="M76.0704 20.3402C75.8199 20.3402 75.6028 20.2834 75.4371 20.1673C75.2649 20.0512 75.1468 19.8874 75.0877 19.681C75.0594 19.6023 75.0427 19.5197 75.026 19.4242C75.0093 19.3275 75.0029 19.223 75.0029 19.0965C75.0029 18.9688 75.0093 18.8617 75.026 18.7675C75.0376 18.6721 75.0594 18.5895 75.0877 18.5108C75.1557 18.3044 75.2701 18.1431 75.4422 18.0244C75.6144 17.9083 75.8199 17.8528 76.0537 17.8528C76.2863 17.8528 76.5085 17.9083 76.6755 18.0244C76.8413 18.1405 76.9646 18.3044 77.0237 18.5056C77.0353 18.5508 77.0468 18.5895 77.0584 18.6321C77.0687 18.6747 77.0751 18.7288 77.0802 18.7817C77.0866 18.8385 77.0918 18.8978 77.0969 18.9714V19.223C77.0969 19.2565 77.0802 19.2746 77.0417 19.2746H75.5835C75.5835 19.2746 75.5553 19.2849 75.5553 19.3029C75.5553 19.3417 75.5553 19.37 75.5668 19.401C75.572 19.4294 75.5835 19.4578 75.5887 19.4861C75.6735 19.7261 75.8508 19.8474 76.1206 19.8474C76.2529 19.8474 76.3659 19.8255 76.4533 19.7855C76.5432 19.7403 76.6139 19.69 76.6755 19.6242C76.7038 19.5958 76.7256 19.5958 76.7488 19.6126L77.0378 19.8706C77.0378 19.8706 77.0609 19.9158 77.0378 19.9377C76.9402 20.0538 76.804 20.1557 76.6383 20.2293C76.4726 20.308 76.2837 20.3402 76.0615 20.3402M76.5432 18.8359C76.5432 18.7572 76.5317 18.6914 76.515 18.6295C76.4815 18.534 76.425 18.4566 76.3428 18.4011C76.2619 18.3444 76.1655 18.316 76.0537 18.316C75.9407 18.316 75.8418 18.3444 75.7608 18.4011C75.676 18.4566 75.6221 18.5276 75.5887 18.6295C75.5668 18.6914 75.5604 18.7572 75.5604 18.8359C75.5604 18.8591 75.572 18.8643 75.5887 18.8643H76.5201C76.5201 18.8643 76.5484 18.8527 76.5484 18.8359" fill="#B18F61"/>
<path d="M78.6163 20.3401C78.3774 20.3401 78.1718 20.2834 78.0009 20.1724C77.8288 20.0628 77.708 19.8989 77.6399 19.6835C77.5898 19.5338 77.5667 19.339 77.5667 19.099C77.5667 18.8591 77.5898 18.6578 77.6399 18.5133C77.708 18.3017 77.8288 18.1353 78.0009 18.0244C78.1718 17.9147 78.3774 17.8579 78.6163 17.8579C78.7936 17.8579 78.949 17.8915 79.0891 17.9573C79.2304 18.0218 79.346 18.1121 79.4385 18.2308C79.4616 18.2592 79.4552 18.2824 79.4385 18.2992L79.1289 18.5727C79.1289 18.5727 79.0788 18.5894 79.0621 18.5611C78.9991 18.494 78.94 18.4462 78.8732 18.4114C78.8052 18.3779 78.7242 18.3559 78.6227 18.3559C78.5187 18.3559 78.4287 18.383 78.3491 18.4346C78.2707 18.4849 78.2168 18.5611 78.1782 18.6694C78.1551 18.7314 78.1435 18.7907 78.1384 18.8642C78.1333 18.9378 78.1268 19.0139 78.1268 19.1107C78.1268 19.2061 78.1268 19.2822 78.1384 19.3558C78.1435 19.4293 78.1602 19.4938 78.1782 19.5506C78.2116 19.6499 78.2733 19.7286 78.3491 19.7802C78.4249 19.8305 78.5161 19.8589 78.6227 19.8589C78.7204 19.8589 78.8052 19.8422 78.8732 19.8022C78.94 19.7686 79.0056 19.7119 79.0621 19.6525C79.0839 19.6306 79.1071 19.6306 79.1289 19.6525L79.4385 19.9273C79.4385 19.9273 79.4616 19.966 79.4385 19.9944C79.3434 20.1053 79.2278 20.1957 79.0891 20.2627C78.9516 20.3311 78.7974 20.3621 78.6163 20.3621" fill="#B18F61"/>
<path d="M81.4871 20.2834C81.4536 20.2834 81.4369 20.2667 81.4369 20.2318V20.0602C81.3689 20.1441 81.2931 20.2099 81.1916 20.2602C81.0965 20.3118 80.9693 20.3402 80.8203 20.3402C80.6931 20.3402 80.5749 20.317 80.4773 20.2718C80.3784 20.2267 80.2936 20.1673 80.2203 20.0886C80.1471 20.0086 80.0996 19.9157 80.0598 19.8087C80.0212 19.7003 80.0045 19.5855 80.0045 19.4577V17.9599C80.0045 17.9264 80.0212 17.9083 80.0546 17.9083H80.5107C80.5441 17.9083 80.5608 17.9264 80.5608 17.9599V19.33C80.5608 19.4861 80.6006 19.61 80.6713 19.7042C80.7419 19.797 80.8537 19.8474 81.0027 19.8474C81.1415 19.8474 81.2532 19.797 81.329 19.7042C81.4061 19.61 81.4447 19.4861 81.4447 19.3365V17.9599C81.4447 17.9264 81.4614 17.9083 81.496 17.9083H81.9521C81.9855 17.9083 82.0022 17.9264 82.0022 17.9599V20.2383C82.0022 20.2718 81.9855 20.2886 81.9521 20.2886H81.496L81.4845 20.2834H81.4871Z" fill="#B18F61"/>
<path d="M82.756 20.2834C82.7226 20.2834 82.7059 20.2667 82.7059 20.2318V17.9535C82.7059 17.9199 82.7226 17.9031 82.756 17.9031H83.2121C83.2455 17.9031 83.2635 17.9199 83.2635 17.9535V18.1547C83.3187 18.0592 83.3945 17.9883 83.5024 17.9315C83.6001 17.8748 83.7298 17.8464 83.8789 17.8464C83.9752 17.8464 84.0677 17.8631 84.1525 17.898C84.2424 17.9315 84.3131 17.9818 84.3747 18.0412C84.3966 18.0644 84.403 18.0863 84.3863 18.1096L84.1242 18.4373C84.1242 18.4373 84.0793 18.4656 84.0561 18.4489C84.0009 18.4153 83.9469 18.3805 83.8904 18.3637C83.8339 18.3418 83.7748 18.3353 83.708 18.3353C83.5525 18.3353 83.4344 18.3869 83.3637 18.4914C83.2943 18.5959 83.2596 18.743 83.2596 18.9378V20.2241C83.2596 20.2576 83.2429 20.2744 83.2095 20.2744H82.7535L82.7586 20.2808L82.756 20.2834Z" fill="#B18F61"/>
<path d="M84.8365 17.4592C84.8031 17.4592 84.7864 17.4424 84.7864 17.4089V16.9793C84.7864 16.9444 84.8031 16.9277 84.8365 16.9277H85.2926C85.326 16.9277 85.344 16.9444 85.344 16.9793V17.4089C85.344 17.4424 85.326 17.4592 85.2926 17.4592H84.8365ZM84.8365 20.2833C84.8031 20.2833 84.7864 20.2665 84.7864 20.2317V17.9533C84.7864 17.9198 84.8031 17.903 84.8365 17.903H85.2926C85.326 17.903 85.344 17.9198 85.344 17.9533V20.2317C85.344 20.2665 85.326 20.2833 85.2926 20.2833H84.8365Z" fill="#B18F61"/>
<path d="M86.7499 20.317C86.511 20.317 86.3388 20.2603 86.2399 20.1441C86.1423 20.0293 86.0909 19.8539 86.0909 19.6216V18.3663C86.0909 18.3663 86.0806 18.338 86.0626 18.338H85.9084C85.875 18.338 85.8583 18.3212 85.8583 18.2877V17.96C85.8583 17.9264 85.875 17.9084 85.9084 17.9084H86.0626C86.0626 17.9084 86.0909 17.898 86.0909 17.88V17.2272C86.0909 17.1936 86.1076 17.1768 86.1423 17.1768H86.5983C86.6317 17.1768 86.6484 17.1936 86.6484 17.2272V17.88C86.6484 17.88 86.66 17.9084 86.6767 17.9084H86.9914C87.0261 17.9084 87.0428 17.9264 87.0428 17.96V18.2877C87.0428 18.3212 87.0261 18.338 86.9914 18.338H86.6767C86.6767 18.338 86.6484 18.3496 86.6484 18.3663V19.6049C86.6484 19.69 86.6651 19.7494 86.7049 19.7777C86.7384 19.8113 86.8 19.8229 86.8707 19.8229H86.9914C87.0261 19.8229 87.0428 19.8397 87.0428 19.8732V20.2693C87.0428 20.3028 87.0261 20.3196 86.9914 20.3196H86.7525L86.7499 20.317Z" fill="#B18F61"/>
<mask id="mask4_6495_15385" style="mask-type:luminance" maskUnits="userSpaceOnUse" x="87" y="17" width="3" height="5">
<path d="M87.1348 17.8592H89.5063V21.2381H87.1348V17.8592Z" fill="white"/>
</mask>
<g mask="url(#mask4_6495_15385)">
<path d="M87.7159 21.1761C87.6825 21.1761 87.6658 21.1594 87.6658 21.1258V20.7297C87.6658 20.6962 87.6825 20.6781 87.7159 20.6781H87.8071C87.9022 20.6781 87.9728 20.6562 88.0294 20.6111C88.0795 20.5659 88.1244 20.4949 88.1617 20.393L88.2285 20.1931L87.3613 17.9534C87.3511 17.9198 87.3613 17.9031 87.4012 17.9031H87.8881C87.9163 17.9031 87.9394 17.9198 87.9497 17.9534L88.488 19.508H88.4996L89.0083 17.9534C89.0199 17.9198 89.0366 17.9031 89.07 17.9031H89.5376C89.571 17.9031 89.5877 17.9198 89.5774 17.9534L88.673 20.433C88.6229 20.5711 88.5689 20.6962 88.5188 20.7839C88.4674 20.8794 88.4084 20.9504 88.3467 21.0123C88.285 21.0691 88.2144 21.1116 88.1411 21.1336C88.0628 21.1568 87.9806 21.1736 87.8803 21.1736H87.7198L87.7159 21.1761Z" fill="#B18F61"/>
</g>
<path d="M114.889 12.3659C112.904 13.5453 110.915 14.7242 108.932 15.9078C108.809 15.9815 108.723 15.9778 108.601 15.9055C106.631 14.7284 104.658 13.5592 102.686 12.3854C102.636 12.3548 102.584 12.3293 102.503 12.2848C102.533 12.359 102.546 12.3965 102.564 12.4332C102.856 13.0516 103.147 13.6682 103.435 14.2885C103.478 14.383 103.538 14.447 103.626 14.5008C104.856 15.2342 106.083 15.9704 107.311 16.7047C107.411 16.765 107.412 16.8252 107.315 16.8846C106.785 17.2045 106.254 17.5276 105.72 17.8433C105.622 17.9012 105.607 17.9318 105.704 18.0102C106.02 18.2601 106.342 18.5048 106.671 18.7394C106.751 18.795 106.808 18.795 106.89 18.7454C107.468 18.395 108.052 18.0505 108.631 17.6982C108.735 17.6342 108.808 17.6384 108.91 17.6982C109.484 18.0487 110.062 18.3889 110.636 18.7394C110.724 18.7932 110.786 18.795 110.872 18.7329C111.191 18.5025 111.504 18.267 111.812 18.0241C111.914 17.9439 111.918 17.9045 111.802 17.8345C111.278 17.5234 110.758 17.2054 110.236 16.8906C110.132 16.8276 110.131 16.7659 110.232 16.7047C111.463 15.9667 112.696 15.2272 113.928 14.4906C113.98 14.4581 114.038 14.4326 114.068 14.3728C114.387 13.6881 114.708 13.0057 115.049 12.2806C114.969 12.3242 114.929 12.3446 114.889 12.3692M111.357 9.39383H109.611C110.502 10.2849 111.391 11.1745 112.24 12.0247V10.2584C112.24 10.2005 112.212 10.162 112.175 10.1245C111.951 9.90193 111.728 9.67755 111.507 9.4541C111.466 9.41052 111.419 9.39198 111.357 9.39198M106.018 9.47635C105.811 9.68636 105.603 9.89683 105.392 10.1031C105.332 10.1611 105.308 10.2227 105.306 10.3071C105.3 10.8555 105.288 11.4063 105.28 11.9547C105.28 11.9923 105.258 12.0368 105.28 12.053C106.163 11.1685 107.045 10.289 107.936 9.39801H106.175C106.103 9.39801 106.064 9.4337 106.019 9.47821M108.126 9.56073C108.13 10.4675 108.128 11.3766 108.128 12.2839H108.124V15.0066C108.124 15.0645 108.093 15.1387 108.159 15.1795C108.355 15.2949 108.542 15.4396 108.755 15.5035C108.895 15.5448 109.022 15.3751 109.162 15.3093C109.217 15.2829 109.267 15.2453 109.323 15.2189C109.397 15.1846 109.426 15.1368 109.426 15.0501C109.422 13.2078 109.42 11.3664 109.423 9.5241C109.423 9.40821 109.382 9.38781 109.28 9.39013C108.949 9.39615 108.618 9.39801 108.289 9.39013H108.273C108.151 9.39013 108.127 9.43788 108.127 9.55841M109.216 5.25116C108.933 5.25719 108.648 5.25534 108.363 5.25116C108.275 5.25116 108.238 5.27944 108.217 5.36706C108.143 5.6735 108.055 5.97715 107.981 6.28405C107.955 6.38975 107.918 6.39578 107.836 6.33597C107.668 6.21405 107.499 6.09537 107.329 5.97715C107.175 5.87191 107.03 5.70502 106.865 5.68277C106.701 5.66237 106.518 5.78754 106.344 5.85337C106.036 5.96741 105.732 6.08609 105.404 6.21219C105.954 6.60625 106.481 6.98268 107.031 7.37488C106.947 7.39946 106.903 7.41661 106.857 7.42449C106.159 7.56079 105.461 7.69708 104.763 7.83106C104.706 7.84311 104.654 7.85517 104.611 7.89689C104.277 8.23531 103.942 8.57327 103.593 8.92607H113.997C113.644 8.56957 113.31 8.23114 112.977 7.89272C112.939 7.85517 112.891 7.84126 112.839 7.83106C112.297 7.72629 111.757 7.62662 111.216 7.51489C111.011 7.47363 110.795 7.45509 110.567 7.367C111.116 6.9748 111.638 6.59976 112.171 6.21915C112.142 6.19875 112.133 6.18669 112.119 6.18345C111.68 6.01702 111.24 5.85337 110.803 5.68277C110.725 5.65217 110.678 5.68277 110.622 5.72032C110.339 5.92059 110.054 6.11669 109.772 6.32067C109.67 6.39485 109.631 6.38279 109.601 6.2567C109.531 5.96 109.447 5.66562 109.375 5.36984C109.353 5.28176 109.315 5.24606 109.225 5.24606H109.217" fill="#355C4D"/>
<path d="M110.066 20.0565H110.724V22.6558H110.066V20.0565Z" fill="#355C4D"/>
<path d="M106.166 22.679H106.896L107.239 22.1681H108.852L109.193 22.679H109.928L108.046 20.0036L106.164 22.679H106.166ZM108.548 21.7142H107.545L108.048 20.9674L108.548 21.7142Z" fill="#355C4D"/>
<path d="M105.587 21.2998L103.019 20.9211L103.492 21.5437L105.406 21.8672C105.474 21.8798 105.523 21.9377 105.523 22.0077C105.523 22.0861 105.46 22.15 105.382 22.15H103.426L102.977 22.7388H105.465C105.658 22.7388 105.838 22.6628 105.976 22.5265C106.111 22.3906 106.187 22.2089 106.187 22.0137C106.187 21.6591 105.934 21.3587 105.587 21.3007V21.2989V21.2998Z" fill="#355C4D"/>
<path d="M106.225 20.1246H103.497L103.049 20.7124H105.777L106.225 20.1246Z" fill="#355C4D"/>
<path d="M113.846 21.2998L111.278 20.9211L111.751 21.5437L113.665 21.8672C113.733 21.8798 113.782 21.9377 113.782 22.0077C113.782 22.0861 113.719 22.15 113.641 22.15H111.685L111.235 22.7388H113.724C113.917 22.7388 114.097 22.6628 114.234 22.5265C114.37 22.3906 114.446 22.2089 114.446 22.0137C114.446 21.6591 114.193 21.3587 113.846 21.3007V21.2989V21.2998Z" fill="#355C4D"/>
<path d="M114.486 20.1246H111.757L111.309 20.7124H114.037L114.486 20.1246Z" fill="#355C4D"/>
<mask id="mask5_6495_15385" style="mask-type:luminance" maskUnits="userSpaceOnUse" x="93" y="0" width="31" height="29">
<path d="M93.7181 0H123.145V28.0576H93.7181V0Z" fill="white"/>
</mask>
<g mask="url(#mask5_6495_15385)">
<path d="M103.436 0.594344L101.56 3.89235L96.1267 13.4424L95.8123 12.8777L100.572 4.51264L103.115 0.0398865M101.689 1.18543H101.053L99.8364 3.32352L95.0778 11.6886L95.3927 12.2533L100.827 2.70462L101.69 1.18543H101.689ZM116.328 23.4806L121.088 15.1155L120.773 14.5508L115.34 24.099L113.464 27.397H101.475L101.808 27.9515H113.783L116.326 23.4806H116.328ZM115.212 26.8055H115.848L117.064 24.6678L121.824 16.3027L121.509 15.7381L116.076 25.2863L115.213 26.8055H115.212ZM97.0874 16.3899L94.4135 11.6886L99.5262 2.70462L99.6919 2.41256H99.0558L98.5369 3.32352L93.7802 11.6863V11.6886L94.095 12.2533L94.0987 12.2472L96.1027 15.7696L101.099 24.551H101.735L97.0915 16.3899H97.0874ZM113.377 26.251H100.802L101.117 26.8055H113.057L113.376 26.251H113.377ZM123.121 16.3037V16.3018L122.806 15.7367L122.802 15.7432L120.799 12.2208L115.88 3.57525H115.244L119.809 11.6001L122.484 16.3018L117.371 25.2863L117.205 25.5788H117.841L118.36 24.6678L123.118 16.3069L123.122 16.3046L123.121 16.3037ZM118.362 5.62202L117.2 3.5771H116.564L117.373 4.99941L122.796 14.5323L123.115 13.9778L118.361 5.62294L118.362 5.62202ZM99.3886 25.1643L94.2566 16.1442L93.9381 16.6987L99.0678 25.7146V25.7188H113.684L114.003 25.1643H99.3886ZM94.0493 13.4628L93.7308 14.0172L99.7224 24.5487H100.359L94.0502 13.4628H94.0493Z" fill="#B18F61"/>
</g>
<mask id="mask6_6495_15385" style="mask-type:luminance" maskUnits="userSpaceOnUse" x="95" y="0" width="29" height="14">
<path d="M95.0179 0H123.026V13.46H95.0179V0Z" fill="white"/>
</mask>
<g mask="url(#mask6_6495_15385)">
<path d="M100.573 4.51261L95.8132 12.8777L96.1275 13.4424L101.561 3.89418L103.438 0.596175H115.427L115.094 0.0417175H103.12L100.576 4.51261H100.573ZM101.689 1.1854H101.053L99.8363 3.3235L95.0778 11.6886L95.3926 12.2532L100.827 2.7046L101.69 1.1854H101.689ZM103.522 1.74218H116.097L115.782 1.18726H103.842L103.523 1.74218H103.522ZM117.511 2.82652L122.642 11.8467L122.961 11.2922L117.831 2.27624V2.27207H103.215L102.896 2.82652H117.511Z" fill="#B18F61"/>
</g>
</svg>
