<svg xmlns="http://www.w3.org/2000/svg" width="88" height="38" viewBox="0 0 88 38" fill="none">
<path d="M6.69122 28.4221C6.78291 28.5253 6.92045 28.5741 7.09811 28.5741H7.23851C7.26716 28.5741 7.28436 28.5827 7.29582 28.5999C7.30442 28.6171 7.31015 28.6314 7.31015 28.6458V29.3541C7.31015 29.3541 7.30442 29.3828 7.29582 29.4C7.28722 29.4172 7.26716 29.4258 7.23851 29.4258H6.8001C6.39895 29.4258 6.09235 29.3025 5.88031 29.053C5.66827 28.8035 5.56225 28.4737 5.56225 28.0579V25.91H5.32728C4.63385 25.91 4.28714 26.2283 4.28714 26.8678V29.4258H1.73693C1.13806 29.4258 0.699648 29.271 0.418838 28.9584C0.140893 28.6458 0.000488281 28.2558 0.000488281 27.7826V25.9128H0.99192V27.6277C0.99192 28.2615 1.33863 28.577 2.03206 28.577H3.29284V26.7129C3.29284 26.2398 3.43325 25.8469 3.71119 25.5343C3.98914 25.2189 4.42755 25.064 5.02928 25.064H6.55081V27.9059C6.55081 28.1525 6.59666 28.3246 6.68835 28.4278M1.30711 30.0481H2.3272V30.94H1.30711V30.0481ZM2.72263 30.0481H3.74271V30.94H2.72263V30.0481Z" fill="#325B4B"/>
<path d="M10.2071 25.9271C10.4048 25.9873 10.6569 26.0762 10.9578 26.1938L10.6397 27.0226C10.3045 26.8763 10.0151 26.8018 9.76866 26.8018C9.43341 26.8018 9.16979 26.8763 8.97781 27.0226C8.78583 27.1689 8.69127 27.3811 8.69127 27.6592C8.69127 27.9862 8.79156 28.2901 8.995 28.574H11.1756L10.9635 29.4258H7.23851C7.20985 29.4258 7.19266 29.4172 7.1812 29.3999C7.1726 29.3827 7.16687 29.3684 7.16687 29.3541V28.6457C7.16687 28.6457 7.1726 28.6171 7.1812 28.5998C7.18979 28.5826 7.20985 28.574 7.23851 28.574H7.9262C7.75141 28.2385 7.66545 27.9288 7.66545 27.6449C7.66545 27.3008 7.73995 26.9911 7.89182 26.7158C8.04369 26.4405 8.26432 26.2254 8.55373 26.0705C8.84313 25.9157 9.18985 25.8354 9.59101 25.8354C9.80305 25.8354 10.0094 25.864 10.2071 25.9243" fill="#325B4B"/>
<path d="M13.0869 28.422C13.1785 28.5253 13.3132 28.574 13.4937 28.574H13.6341C13.6628 28.574 13.68 28.5826 13.6915 28.5998C13.7001 28.617 13.7058 28.6314 13.7058 28.6457V29.354C13.7058 29.354 13.7001 29.3827 13.6915 29.3999C13.6829 29.4171 13.6628 29.4257 13.6341 29.4257H13.1957C12.7946 29.4257 12.488 29.3024 12.2759 29.0529C12.0639 28.8034 11.9579 28.4737 11.9579 28.0578V23.9971H12.9493V27.903C12.9493 28.1496 12.9952 28.3217 13.0869 28.4249" fill="#325B4B"/>
<path d="M15.4137 28.3124C15.5541 28.4874 15.7834 28.5734 16.1014 28.5734C16.1301 28.5734 16.1473 28.582 16.1587 28.5992C16.1673 28.6164 16.1731 28.6308 16.1731 28.6451V29.3534C16.1731 29.3534 16.1673 29.3821 16.1587 29.3993C16.1502 29.4165 16.1301 29.4251 16.1014 29.4251C15.9467 29.4251 15.7748 29.3878 15.5914 29.3104C15.408 29.2358 15.2418 29.1211 15.0957 28.9691C14.8407 29.2703 14.4997 29.4222 14.0756 29.4222H13.6372C13.6085 29.4222 13.5913 29.4136 13.5799 29.3964C13.5713 29.3792 13.5656 29.3649 13.5656 29.3506V28.6422C13.5656 28.6422 13.5713 28.6135 13.5799 28.5963C13.5885 28.5791 13.6085 28.5705 13.6372 28.5705H13.7776C13.9667 28.5705 14.1272 28.496 14.2618 28.3468C14.3965 28.1977 14.4624 27.9999 14.4624 27.7561V25.9064H15.4539V27.911C15.4539 28.0486 15.4395 28.1805 15.4109 28.3067M14.451 24.4123H15.471V25.3042H14.451V24.4123Z" fill="#325B4B"/>
<path d="M21.1672 26.0727C21.4566 26.2276 21.6772 26.4427 21.8291 26.718C21.9809 26.9933 22.0554 27.3001 22.0554 27.6471C22.0554 27.9167 22.0124 28.1576 21.9294 28.3698C22.0755 28.5074 22.2875 28.5763 22.5655 28.5763C22.5941 28.5763 22.6142 28.5849 22.6228 28.6021C22.6314 28.6193 22.6371 28.6336 22.6371 28.648V29.3563C22.6371 29.3563 22.6314 29.385 22.6228 29.4022C22.6142 29.4194 22.5941 29.428 22.5655 29.428C22.405 29.428 22.2302 29.3878 22.044 29.3104C21.8577 29.233 21.6915 29.1154 21.5454 28.9605C21.2187 29.2731 20.8147 29.428 20.3333 29.428H16.0982C16.0696 29.428 16.0524 29.4194 16.0409 29.4022C16.0323 29.385 16.0266 29.3706 16.0266 29.3563V28.648C16.0266 28.648 16.0323 28.6193 16.0409 28.6021C16.0495 28.5849 16.0696 28.5763 16.0982 28.5763H16.806V25.9121H17.7974V26.6578C18.6141 26.1129 19.3906 25.8433 20.127 25.8433C20.5282 25.8433 20.8749 25.9208 21.1643 26.0785M18.8376 26.9072C18.5052 27.0449 18.1585 27.2399 17.8003 27.4951V28.5734H20.1643C20.4422 28.5734 20.6571 28.4931 20.8061 28.3296C20.9551 28.1662 21.0296 27.9425 21.0296 27.6586C21.0239 27.3718 20.9265 27.1395 20.7316 26.9646C20.5368 26.7897 20.2789 26.7036 19.9522 26.7036C19.5425 26.7036 19.17 26.7725 18.8376 26.9101" fill="#325B4B"/>
<path d="M22.566 29.4257C22.5374 29.4257 22.5202 29.4171 22.5087 29.3999C22.5001 29.3827 22.4944 29.3684 22.4944 29.354V28.6457C22.4944 28.6457 22.5001 28.617 22.5087 28.5998C22.5173 28.5826 22.5374 28.574 22.566 28.574H23.2738V23.9971H24.2595V29.4257H22.566Z" fill="#325B4B"/>
<path d="M26.4516 23.9971H25.4602V29.4257H26.4516V23.9971Z" fill="#325B4B"/>
<path d="M33.7666 28.5995C33.7752 28.6167 33.7809 28.631 33.7809 28.6453V29.3537C33.7809 29.3537 33.7752 29.3824 33.7666 29.3996C33.758 29.4168 33.7379 29.4254 33.7093 29.4254H32.9242V30.6872H30.8066C30.2078 30.6872 29.7693 30.5323 29.4885 30.2197C29.2106 29.9071 29.0702 29.5171 29.0702 29.044V27.6617H30.0616V28.8891C30.0616 29.5257 30.4083 29.8469 31.1018 29.8469H31.9299V25.9124H32.9213V28.5765H33.7064C33.7351 28.5765 33.7523 28.5851 33.7637 28.6023M30.4255 25.0234H31.4456V25.9153H30.4255V25.0234Z" fill="#325B4B"/>
<path d="M36.5544 26.073C36.8438 26.2279 37.0702 26.4458 37.2306 26.7212C37.3911 26.9965 37.4713 27.3062 37.4713 27.6446C37.4713 28.0891 37.3309 28.6827 37.0472 29.4226H33.7119C33.6832 29.4226 33.666 29.4139 33.6546 29.3967C33.646 29.3795 33.6403 29.3652 33.6403 29.3509V28.6425C33.6403 28.6425 33.646 28.6139 33.6546 28.5966C33.6632 28.5794 33.6832 28.5708 33.7119 28.5708H34.136V25.9784C34.7492 25.8838 35.2191 25.8379 35.5458 25.8379C35.9269 25.8379 36.265 25.9153 36.5544 26.073ZM35.1274 26.7384V28.5737H36.3022C36.3968 28.2468 36.4426 27.9428 36.4426 27.6589C36.4426 27.0108 36.1532 26.6867 35.5801 26.6867C35.434 26.6867 35.2821 26.7039 35.1274 26.7355" fill="#325B4B"/>
<path d="M42.5752 28.4217C42.6669 28.5249 42.8044 28.5736 42.9821 28.5736H43.1225C43.1511 28.5736 43.1683 28.5822 43.1798 28.5995C43.1884 28.6167 43.1941 28.631 43.1941 28.6453V29.3537C43.1941 29.3537 43.1884 29.3823 43.1798 29.3995C43.1712 29.4168 43.1511 29.4254 43.1225 29.4254H42.6841C42.26 29.4254 41.9362 29.282 41.7127 28.9923C41.3201 29.2791 40.8875 29.4254 40.4089 29.4254H38.3143L37.9332 28.5736H39.6038L38.9103 25.4994H39.9218L40.5866 28.5679C40.9448 28.5335 41.2342 28.4532 41.4577 28.3213C41.4491 28.2066 41.4434 28.1205 41.4434 28.0603V23.8562H42.4348V27.9026C42.4348 28.1492 42.4806 28.3213 42.5723 28.4245M40.0278 23.9451L39.9218 24.3982C39.7843 24.3609 39.6754 24.3409 39.5952 24.3409C39.5493 24.3409 39.5092 24.3523 39.4777 24.381C39.4462 24.4068 39.4318 24.4384 39.4318 24.4757C39.4318 24.5473 39.4634 24.599 39.5235 24.6305H40.1253V25.0922H38.7098L38.8301 24.6305H39.0909C39.045 24.5359 39.0192 24.4498 39.0192 24.3696C39.0192 24.2176 39.0651 24.0942 39.1568 23.9939C39.2485 23.8935 39.3774 23.8448 39.5436 23.8448C39.6668 23.8448 39.8273 23.8792 40.025 23.9451" fill="#325B4B"/>
<path d="M43.1224 29.4257C43.0938 29.4257 43.0766 29.4171 43.0651 29.3999C43.0565 29.3827 43.0508 29.3684 43.0508 29.354V28.6457C43.0508 28.6457 43.0565 28.617 43.0651 28.5998C43.0737 28.5826 43.0938 28.574 43.1224 28.574H43.8302V23.9971H44.8159V29.4257H43.1224Z" fill="#325B4B"/>
<path d="M48.6008 28.422C48.6925 28.5253 48.8271 28.574 49.0077 28.574H49.1481C49.1767 28.574 49.1939 28.5826 49.2054 28.5998C49.214 28.617 49.2197 28.6314 49.2197 28.6457V29.354C49.2197 29.354 49.214 29.3827 49.2054 29.3999C49.1968 29.4171 49.1767 29.4257 49.1481 29.4257H48.7097C48.3085 29.4257 48.0019 29.3024 47.7899 29.0529C47.5778 28.8034 47.4718 28.4737 47.4718 28.0578V23.9971H48.4632V27.903C48.4632 28.1496 48.5091 28.3217 48.6008 28.4249" fill="#325B4B"/>
<path d="M51.4291 28.2844C51.5323 28.3991 51.6497 28.4737 51.7844 28.5138C51.9162 28.554 52.1197 28.574 52.3947 28.574C52.4234 28.574 52.4406 28.5826 52.4521 28.5998C52.4606 28.6171 52.4664 28.6314 52.4664 28.6457V29.3541C52.4664 29.3541 52.4606 29.3827 52.4521 29.3999C52.4435 29.4172 52.4234 29.4258 52.3947 29.4258C52.0967 29.42 51.8589 29.3799 51.6784 29.3024C51.4979 29.225 51.3288 29.0874 51.1683 28.8866C51.0451 29.0558 50.8904 29.1877 50.7042 29.2824C50.5179 29.377 50.3116 29.4229 50.0852 29.4229H49.1511C49.1224 29.4229 49.1053 29.4143 49.0938 29.3971C49.0852 29.3799 49.0795 29.3655 49.0795 29.3512V28.6429C49.0795 28.6429 49.0852 28.6142 49.0938 28.597C49.1024 28.5798 49.1224 28.5712 49.1511 28.5712H49.7872C49.9763 28.5712 50.1368 28.4966 50.2715 28.3475C50.4061 28.1984 50.4721 28.0005 50.4721 27.7567V25.8354H51.4635V27.9116C51.4635 28.0292 51.452 28.1525 51.4291 28.2787M49.5093 30.0481H50.5294V30.9399H49.5093V30.0481ZM50.9248 30.0481H51.9449V30.9399H50.9248V30.0481Z" fill="#325B4B"/>
<path d="M54.168 28.313C54.3084 28.4879 54.5376 28.574 54.8557 28.574C54.8844 28.574 54.9016 28.5826 54.913 28.5998C54.9216 28.617 54.9273 28.6313 54.9273 28.6457V29.354C54.9273 29.354 54.9216 29.3827 54.913 29.3999C54.9044 29.4171 54.8844 29.4257 54.8557 29.4257C54.701 29.4257 54.5291 29.3884 54.3457 29.311C54.1623 29.2364 53.9961 29.1217 53.85 28.9697C53.5949 29.2708 53.2539 29.4228 52.8299 29.4228H52.3915C52.3628 29.4228 52.3456 29.4142 52.3342 29.397C52.3256 29.3798 52.3198 29.3655 52.3198 29.3511V28.6428C52.3198 28.6428 52.3256 28.6141 52.3342 28.5969C52.3427 28.5797 52.3628 28.5711 52.3915 28.5711H52.5319C52.721 28.5711 52.8814 28.4965 53.0161 28.3474C53.1508 28.1983 53.2167 28.0004 53.2167 27.7567V23.9942H54.2081V27.9144C54.2081 28.052 54.1938 28.184 54.1651 28.3101" fill="#325B4B"/>
<path d="M58.0653 25.9067C58.3633 26.0472 58.6012 26.2279 58.7759 26.4573C58.9536 26.6839 59.0424 26.9219 59.0424 27.1742C59.0424 27.4065 58.9765 27.6417 58.8447 27.8797C58.7129 28.1177 58.5324 28.3328 58.306 28.5221C58.5324 28.5594 58.8419 28.5794 59.2344 28.5794C59.2946 28.5794 59.3261 28.6052 59.3261 28.6569V29.3508C59.3261 29.4025 59.2946 29.4283 59.2344 29.4283C58.4779 29.4283 57.8103 29.3394 57.2315 29.1673C56.5409 29.3422 55.7529 29.4283 54.8675 29.4283C54.816 29.4283 54.7902 29.4025 54.7902 29.3508V28.6569C54.7902 28.6052 54.816 28.5794 54.8675 28.5794C55.3976 28.5794 55.7988 28.5565 56.0796 28.5077C55.8102 28.1952 55.4836 27.722 55.1025 27.0911L55.3231 26.1705C55.687 26.0157 56.0051 25.8981 56.2802 25.8207C56.5553 25.7432 56.8332 25.7031 57.1169 25.7031C57.4579 25.7031 57.7759 25.7719 58.0739 25.9124M56.0022 26.9305C56.1283 27.18 56.2974 27.4438 56.5037 27.722C56.71 27.9973 56.9192 28.2324 57.1255 28.4188C57.3748 28.2955 57.5925 28.1407 57.7731 27.9514C57.9536 27.7621 58.0453 27.5614 58.0453 27.3492C58.0453 27.137 57.9478 26.9678 57.7559 26.8416C57.561 26.7154 57.326 26.6552 57.0481 26.6552C56.7702 26.6552 56.412 26.7469 55.9994 26.9305" fill="#325B4B"/>
<path d="M59.2544 29.4257C59.2257 29.4257 59.2085 29.4171 59.1971 29.3999C59.1885 29.3827 59.1827 29.3684 59.1827 29.354V28.6457C59.1827 28.6457 59.1885 28.617 59.1971 28.5998C59.2057 28.5826 59.2257 28.574 59.2544 28.574H59.9621V23.9971H60.9478V29.4257H59.2544Z" fill="#325B4B"/>
<path d="M63.1429 23.9971H62.1515V29.4257H63.1429V23.9971Z" fill="#325B4B"/>
<path d="M68.8483 25.981L68.8426 27.9024C68.8426 28.149 68.8884 28.321 68.9801 28.4243C69.0718 28.5275 69.2065 28.5763 69.387 28.5763H69.5274C69.556 28.5763 69.5732 28.5849 69.5847 28.6021C69.5933 28.6193 69.599 28.6336 69.599 28.648V29.3563C69.599 29.3563 69.5933 29.385 69.5847 29.4022C69.5761 29.4194 69.556 29.428 69.5274 29.428H69.089C68.6878 29.428 68.3812 29.3047 68.1692 29.058C67.9571 28.8114 67.8511 28.4788 67.8511 28.0601V26.7409C67.6849 26.7065 67.5359 26.6922 67.4041 26.6922C66.8282 26.6922 66.5416 27.0162 66.5416 27.6643C66.5416 27.9482 66.6161 28.1719 66.7651 28.3354C66.9141 28.4988 67.1262 28.5791 67.407 28.5791H67.7738L67.3927 29.4308H67.2523C66.9256 29.4308 66.6305 29.3563 66.3668 29.21C66.1032 29.0638 65.894 28.8544 65.745 28.5877C65.5932 28.3182 65.5187 28.0056 65.5187 27.6529C65.5187 27.3001 65.5989 27.0048 65.7594 26.7294C65.9198 26.4541 66.1462 26.2362 66.4356 26.0813C66.725 25.9265 67.0631 25.8462 67.4442 25.8462C67.7709 25.8462 68.2408 25.8921 68.854 25.9867M66.2379 24.4123H67.258V25.3042H66.2379V24.4123ZM67.6534 24.4123H68.6735V25.3042H67.6534V24.4123Z" fill="#325B4B"/>
<path d="M71.808 28.2843C71.9112 28.399 72.0286 28.4736 72.1633 28.5137C72.2951 28.5539 72.4986 28.574 72.7737 28.574C72.8023 28.574 72.8195 28.5826 72.831 28.5998C72.8396 28.617 72.8453 28.6313 72.8453 28.6456V29.354C72.8453 29.354 72.8396 29.3827 72.831 29.3999C72.8224 29.4171 72.8023 29.4257 72.7737 29.4257C72.4757 29.4199 72.2378 29.3798 72.0573 29.3024C71.8768 29.2249 71.7077 29.0873 71.5473 28.8865C71.424 29.0557 71.2693 29.1877 71.0831 29.2823C70.8968 29.3769 70.6905 29.4228 70.4641 29.4228H69.53C69.5014 29.4228 69.4842 29.4142 69.4727 29.397C69.4641 29.3798 69.4584 29.3654 69.4584 29.3511V28.6428C69.4584 28.6428 69.4641 28.6141 69.4727 28.5969C69.4813 28.5797 69.5014 28.5711 69.53 28.5711H70.1661C70.3552 28.5711 70.5157 28.4965 70.6504 28.3474C70.7851 28.1983 70.851 28.0004 70.851 27.7567V25.8353H71.8424V27.9115C71.8424 28.0291 71.8309 28.1524 71.808 28.2786M71.9799 23.8537L71.8023 24.3928C71.722 24.3641 71.6561 24.3498 71.6046 24.3498C71.5329 24.3498 71.4756 24.3727 71.4298 24.4215C71.3839 24.4674 71.3639 24.5362 71.3639 24.6194C71.3639 24.7025 71.3839 24.7742 71.4212 24.8258H72.235V25.4281H70.3381L70.4641 24.8258H70.8108C70.765 24.7312 70.7392 24.6366 70.7392 24.5419C70.7392 24.3096 70.8108 24.1261 70.9541 23.9885C71.0974 23.8508 71.2922 23.782 71.5387 23.782C71.6762 23.782 71.8223 23.8049 71.9771 23.8537" fill="#325B4B"/>
<path d="M75.0513 28.2844C75.1544 28.3991 75.2719 28.4737 75.4066 28.5138C75.5384 28.554 75.7419 28.574 76.0169 28.574C76.0456 28.574 76.0628 28.5826 76.0742 28.5998C76.0828 28.6171 76.0886 28.6314 76.0886 28.6457V29.3541C76.0886 29.3541 76.0828 29.3827 76.0742 29.3999C76.0657 29.4172 76.0456 29.4258 76.0169 29.4258C75.7189 29.42 75.4811 29.3799 75.3006 29.3024C75.1201 29.225 74.951 29.0874 74.7905 28.8866C74.6673 29.0558 74.5126 29.1877 74.3263 29.2824C74.1401 29.377 73.9338 29.4229 73.7074 29.4229H72.7733C72.7446 29.4229 72.7274 29.4143 72.716 29.3971C72.7074 29.3799 72.7017 29.3655 72.7017 29.3512V28.6429C72.7017 28.6429 72.7074 28.6142 72.716 28.597C72.7246 28.5798 72.7446 28.5712 72.7733 28.5712H73.4094C73.5985 28.5712 73.759 28.4966 73.8937 28.3475C74.0283 28.1984 74.0942 28.0005 74.0942 27.7567V25.8354H75.0857V27.9116C75.0857 28.0292 75.0742 28.1525 75.0513 28.2787M73.1343 30.0481H74.1544V30.9399H73.1343V30.0481ZM74.5498 30.0481H75.5699V30.9399H74.5498V30.0481Z" fill="#325B4B"/>
<path d="M80.0543 25.3735C80.4669 25.5829 80.785 25.8696 81.0027 26.2281C81.2234 26.5866 81.3323 26.9852 81.3323 27.4268C81.3323 27.6878 81.295 27.9487 81.2177 28.2126C81.2979 28.3388 81.3953 28.4334 81.5071 28.4879C81.6217 28.5452 81.7764 28.5739 81.9741 28.5739C82.0028 28.5739 82.0228 28.5825 82.0314 28.5997C82.04 28.6169 82.0458 28.6313 82.0458 28.6456V29.3539C82.0458 29.3539 82.04 29.3826 82.0314 29.3998C82.0228 29.417 82.0028 29.4256 81.9741 29.4256C81.7993 29.4256 81.6102 29.3769 81.4039 29.2851C81.1976 29.1905 81.0228 29.0528 80.8767 28.875C80.5787 29.2421 80.2004 29.4285 79.7362 29.4285H76.0112C75.9826 29.4285 75.9654 29.4199 75.9539 29.4027C75.9453 29.3855 75.9396 29.3711 75.9396 29.3568V28.6485C75.9396 28.6485 75.9453 28.6198 75.9539 28.6026C75.9625 28.5854 75.9826 28.5768 76.0112 28.5768H76.8737C76.6416 28.3703 76.527 28.0864 76.527 27.7251C76.527 27.4899 76.5929 27.2634 76.7247 27.0454C76.8565 26.8275 77.0399 26.6525 77.2777 26.5206C77.5127 26.3887 77.782 26.3227 78.0858 26.3227C78.421 26.3227 78.7047 26.3944 78.9368 26.535C79.1689 26.6755 79.3408 26.859 79.4583 27.0798C79.5729 27.3006 79.6331 27.5272 79.6331 27.7595C79.6331 28.0864 79.5156 28.356 79.2778 28.5739H79.4411C79.5729 28.5739 79.7104 28.5366 79.848 28.4592C79.9884 28.3846 80.103 28.2642 80.1976 28.1007C80.2921 27.9373 80.338 27.7337 80.338 27.487C80.338 27.2003 80.2692 26.9336 80.1374 26.6927C80.0027 26.4518 79.8021 26.2597 79.5385 26.1191C79.2749 25.9786 78.954 25.9069 78.5757 25.9069H78.0944L77.719 25.0552H78.5901C79.1517 25.0552 79.6388 25.1613 80.0514 25.3707M77.6817 27.3264C77.5757 27.4297 77.5213 27.5874 77.5213 27.7939C77.5213 28.1868 77.7276 28.4449 78.1373 28.5739H78.166C78.3608 28.5739 78.5098 28.5051 78.6187 28.3646C78.7276 28.224 78.7821 28.0434 78.7821 27.8226C78.7821 27.7222 78.7534 27.6218 78.6961 27.5215C78.6388 27.4211 78.5586 27.335 78.4554 27.2691C78.3522 27.2031 78.229 27.1687 78.0886 27.1687C77.9224 27.1687 77.7878 27.2203 77.6817 27.3236" fill="#325B4B"/>
<path d="M81.9772 29.4257C81.9485 29.4257 81.9313 29.4171 81.9198 29.3999C81.9113 29.3827 81.9055 29.3684 81.9055 29.354V28.6457C81.9055 28.6457 81.9113 28.617 81.9198 28.5998C81.9284 28.5826 81.9485 28.574 81.9772 28.574H82.6849V23.9971H83.6706V29.4257H81.9772Z" fill="#325B4B"/>
<path d="M85.8652 23.9971H84.8738V29.4257H85.8652V23.9971Z" fill="#325B4B"/>
<path d="M1.20658 37.1938C1.08623 37.1938 0.968751 37.1823 0.857 37.1593C0.745249 37.1364 0.636364 37.1077 0.533209 37.0676C0.430054 37.0303 0.335496 36.9844 0.249534 36.9299C0.163571 36.8783 0.0890706 36.8209 0.0260317 36.7607C0.00024298 36.7349 -0.00262243 36.712 0.0174354 36.689L0.309707 36.3478C0.33263 36.322 0.352688 36.322 0.375611 36.342C0.427189 36.3822 0.484497 36.4252 0.547536 36.4654C0.61344 36.5055 0.68221 36.5428 0.756711 36.5743C0.831211 36.6059 0.908577 36.6317 0.991674 36.6518C1.07477 36.6718 1.16073 36.6833 1.25243 36.6833C1.44441 36.6833 1.59341 36.6403 1.69943 36.5542C1.80545 36.4682 1.85703 36.3564 1.85703 36.2216C1.85703 36.104 1.81405 36.0094 1.72808 35.9348C1.64212 35.8603 1.49026 35.8086 1.26962 35.7771L1.10056 35.7542C0.78823 35.7111 0.547536 35.6136 0.381342 35.4616C0.215149 35.3125 0.129186 35.1032 0.129186 34.8336C0.129186 34.6874 0.154975 34.5554 0.203687 34.435C0.255264 34.3146 0.3269 34.2113 0.421458 34.1282C0.516016 34.0421 0.630633 33.979 0.765307 33.9331C0.899981 33.8873 1.04898 33.8643 1.21804 33.8643C1.41862 33.8643 1.6106 33.893 1.79399 33.9532C1.97451 34.0134 2.13211 34.0909 2.26105 34.1884C2.28397 34.2084 2.28684 34.2314 2.26965 34.2543L2.04328 34.6071C2.02322 34.6329 2.00316 34.6357 1.97737 34.6214C1.84557 34.5354 1.71662 34.4723 1.59341 34.4321C1.4702 34.392 1.34125 34.3719 1.20658 34.3719C1.04325 34.3719 0.917174 34.4121 0.831211 34.4924C0.745249 34.5726 0.702268 34.6759 0.702268 34.8021C0.702268 34.9139 0.748115 35.0057 0.834077 35.0802C0.920039 35.1548 1.07477 35.2064 1.29541 35.238L1.46733 35.2609C1.77966 35.3039 2.02036 35.4014 2.18368 35.5534C2.34701 35.7025 2.43011 35.9176 2.43011 36.1958C2.43011 36.3392 2.40432 36.4711 2.35274 36.5944C2.30117 36.7177 2.2238 36.8238 2.12065 36.9127C2.01749 37.0016 1.88855 37.0704 1.73955 37.1221C1.58768 37.1737 1.41289 37.1966 1.21518 37.1966" fill="#B18F61"/>
<path d="M4.36435 37.1419C4.33283 37.1419 4.31563 37.1276 4.31563 37.0932V36.9268H4.3099C4.24686 37.0043 4.1695 37.0702 4.07494 37.119C3.98325 37.1677 3.8629 37.1935 3.71676 37.1935C3.59355 37.1935 3.48466 37.1734 3.38724 37.1304C3.28982 37.0874 3.20959 37.0272 3.14082 36.9526C3.07205 36.8781 3.02047 36.7863 2.98608 36.6859C2.94883 36.5827 2.93164 36.4709 2.93164 36.3475V34.9079C2.93164 34.8764 2.94883 34.8592 2.98035 34.8592H3.41589C3.44741 34.8592 3.46174 34.8764 3.46174 34.9079V36.2242C3.46174 36.3734 3.49613 36.4938 3.5649 36.5856C3.63367 36.6773 3.74255 36.7232 3.88582 36.7232C4.0205 36.7232 4.12652 36.6773 4.20102 36.5856C4.27552 36.4938 4.31277 36.3762 4.31277 36.23V34.9079C4.31277 34.8764 4.32996 34.8592 4.36148 34.8592H4.79702C4.82854 34.8592 4.84573 34.8764 4.84573 34.9079V37.096C4.84573 37.1276 4.82854 37.1448 4.79702 37.1448H4.36148L4.36435 37.1419Z" fill="#B18F61"/>
<path d="M5.58503 37.9941C5.55351 37.9941 5.53918 37.9769 5.53918 37.9454V34.9056C5.53918 34.874 5.55351 34.8568 5.58503 34.8568H6.02057C6.05209 34.8568 6.06929 34.874 6.06929 34.9056V35.0748H6.07502C6.12946 34.9945 6.20396 34.9314 6.30138 34.8798C6.39881 34.8281 6.52488 34.8052 6.67962 34.8052C6.87446 34.8052 7.04066 34.8511 7.17533 34.9429C7.31001 35.0346 7.40743 35.1723 7.4676 35.3558C7.49626 35.4447 7.51632 35.5336 7.52778 35.6282C7.53924 35.72 7.54784 35.8462 7.54784 36.001C7.54784 36.1559 7.54211 36.2792 7.52778 36.3739C7.51632 36.4656 7.49339 36.5574 7.4676 36.6463C7.40743 36.8298 7.31001 36.9675 7.17533 37.0592C7.04066 37.151 6.87446 37.1969 6.67962 37.1969C6.52488 37.1969 6.39881 37.1711 6.30138 37.1223C6.20396 37.0707 6.12659 37.0076 6.07502 36.9273H6.06929V37.9511C6.06929 37.9826 6.05209 37.9999 6.02057 37.9999H5.58503V37.9941ZM6.53921 36.7208C6.75698 36.7208 6.89739 36.6233 6.96043 36.4283C6.97475 36.3739 6.98908 36.3165 6.99481 36.2534C7.00341 36.1903 7.00627 36.1072 7.00627 36.001C7.00627 35.8949 7.00341 35.8118 6.99481 35.7516C6.98622 35.6885 6.97475 35.6311 6.96043 35.5766C6.89739 35.3816 6.75698 35.2841 6.53921 35.2841C6.32144 35.2841 6.17531 35.3816 6.11227 35.5766C6.09507 35.6311 6.08361 35.6885 6.07788 35.7516C6.06929 35.8146 6.06642 35.8978 6.06642 36.001C6.06642 36.1043 6.06929 36.1874 6.07788 36.2534C6.08648 36.3165 6.09794 36.3739 6.11227 36.4283C6.17531 36.6233 6.31858 36.7208 6.53921 36.7208Z" fill="#B18F61"/>
<path d="M8.16401 37.1425C8.13249 37.1425 8.11816 37.1281 8.11816 37.0937V34.9056C8.11816 34.8741 8.13249 34.8569 8.16401 34.8569H8.59955C8.63107 34.8569 8.64826 34.8741 8.64826 34.9056V35.1006H8.654C8.70844 35.0117 8.78294 34.9401 8.88036 34.8884C8.97779 34.8339 9.101 34.8081 9.24427 34.8081C9.33596 34.8081 9.42192 34.8253 9.50789 34.8569C9.59098 34.8913 9.66262 34.9372 9.72279 34.9974C9.74572 35.0203 9.74858 35.0404 9.73139 35.0634L9.47923 35.3817C9.45918 35.4075 9.43912 35.4104 9.41333 35.3903C9.35889 35.3559 9.30731 35.3301 9.25287 35.31C9.19842 35.2899 9.14111 35.2813 9.07808 35.2813C8.92621 35.2813 8.81732 35.3329 8.74855 35.4333C8.67978 35.5337 8.6454 35.6771 8.6454 35.8606V37.0966C8.6454 37.1281 8.62821 37.1453 8.59669 37.1453H8.16115L8.16401 37.1425Z" fill="#B18F61"/>
<path d="M11.0212 37.1944C10.7776 37.1944 10.5742 37.137 10.4137 37.0252C10.2504 36.9133 10.1386 36.7585 10.0756 36.5577C10.0498 36.486 10.0297 36.4029 10.0154 36.314C10.0011 36.2251 9.99536 36.119 9.99536 35.9985C9.99536 35.8781 10.0011 35.772 10.0154 35.6802C10.0269 35.5884 10.0469 35.5053 10.0727 35.4336C10.1358 35.2357 10.2475 35.0808 10.4137 34.969C10.577 34.8572 10.7748 34.8027 11.0011 34.8027C11.2275 34.8027 11.4367 34.86 11.6 34.9719C11.7633 35.0837 11.8751 35.2386 11.9381 35.4336C11.9496 35.4737 11.961 35.5167 11.9725 35.5569C11.9811 35.597 11.9897 35.6458 11.9954 35.7003C12.0011 35.7548 12.0069 35.815 12.0097 35.8838C12.0126 35.9526 12.0155 36.0301 12.0155 36.1218C12.0155 36.1534 11.9983 36.1706 11.9639 36.1706H10.5598C10.5398 36.1706 10.5312 36.1792 10.5312 36.1993C10.5312 36.2337 10.5341 36.2652 10.5398 36.2939C10.5455 36.3226 10.5541 36.3484 10.5627 36.3742C10.6401 36.6036 10.812 36.7212 11.0728 36.7212C11.2017 36.7212 11.3106 36.7011 11.3937 36.661C11.4796 36.6208 11.5484 36.5692 11.6057 36.5061C11.6315 36.4803 11.6544 36.4774 11.6774 36.4975L11.9553 36.7441C11.9782 36.7642 11.9782 36.7843 11.961 36.8101C11.8636 36.9248 11.7347 37.0166 11.5771 37.0883C11.4195 37.1599 11.2361 37.1972 11.024 37.1972M11.4739 35.749C11.4739 35.6745 11.4653 35.6114 11.4453 35.554C11.4137 35.4623 11.3593 35.3906 11.2791 35.3361C11.1988 35.2845 11.1071 35.2586 11.0011 35.2586C10.8951 35.2586 10.7948 35.2845 10.7174 35.3361C10.6372 35.3877 10.5828 35.4623 10.5513 35.554C10.5312 35.6114 10.5226 35.6773 10.5226 35.749C10.5226 35.7691 10.5312 35.7777 10.5513 35.7777H11.4453C11.4653 35.7777 11.4739 35.7691 11.4739 35.749Z" fill="#B18F61"/>
<path d="M15.4191 37.1424C15.3876 37.1424 15.3704 37.1281 15.3704 37.0937V35.7774C15.3704 35.6282 15.3331 35.5078 15.2615 35.416C15.1899 35.3243 15.081 35.2784 14.9406 35.2784C14.8002 35.2784 14.6941 35.3243 14.6196 35.416C14.5451 35.5078 14.505 35.6282 14.505 35.7774V37.0937C14.505 37.1252 14.4878 37.1424 14.4563 37.1424H14.0208C13.9892 37.1424 13.9749 37.1281 13.9749 37.0937V35.7774C13.9749 35.6282 13.9377 35.5078 13.866 35.416C13.7944 35.3243 13.6855 35.2784 13.5451 35.2784C13.4047 35.2784 13.2987 35.3243 13.2242 35.416C13.1497 35.5078 13.1096 35.6282 13.1096 35.7774V37.0937C13.1096 37.1252 13.0924 37.1424 13.0609 37.1424H12.6253C12.5938 37.1424 12.5795 37.1281 12.5795 37.0937V34.9056C12.5795 34.874 12.5938 34.8568 12.6253 34.8568H13.0609C13.0924 34.8568 13.1096 34.874 13.1096 34.9056V35.0719H13.1153C13.1669 35.0002 13.2414 34.9371 13.3388 34.8855C13.4391 34.8339 13.5623 34.8081 13.7142 34.8081C13.8488 34.8081 13.9692 34.8339 14.0752 34.8855C14.1812 34.9371 14.2672 35.0117 14.3388 35.1092H14.3446C14.4334 35.0145 14.5365 34.94 14.6512 34.8855C14.7686 34.831 14.909 34.8052 15.0724 34.8052C15.2042 34.8052 15.3217 34.8253 15.4248 34.8683C15.528 34.9113 15.6139 34.9687 15.6856 35.0461C15.7572 35.1207 15.8088 35.2096 15.846 35.3128C15.8833 35.416 15.9005 35.5279 15.9005 35.6512V37.0908C15.9005 37.1223 15.8833 37.1395 15.8518 37.1395H15.4162L15.4191 37.1424Z" fill="#B18F61"/>
<path d="M17.4739 37.1944C17.2304 37.1944 17.0269 37.137 16.8665 37.0252C16.7031 36.9133 16.5914 36.7585 16.5284 36.5577C16.5026 36.486 16.4825 36.4029 16.4682 36.314C16.4539 36.2251 16.4481 36.119 16.4481 35.9985C16.4481 35.8781 16.4539 35.772 16.4682 35.6802C16.4796 35.5884 16.4997 35.5053 16.5255 35.4336C16.5885 35.2357 16.7003 35.0808 16.8665 34.969C17.0298 34.8572 17.2275 34.8027 17.4539 34.8027C17.6802 34.8027 17.8894 34.86 18.0527 34.9719C18.2161 35.0837 18.3278 35.2386 18.3909 35.4336C18.4023 35.4737 18.4138 35.5167 18.4253 35.5569C18.4338 35.597 18.4424 35.6458 18.4482 35.7003C18.4539 35.7548 18.4596 35.815 18.4625 35.8838C18.4654 35.9526 18.4682 36.0301 18.4682 36.1218C18.4682 36.1534 18.451 36.1706 18.4167 36.1706H17.0126C16.9925 36.1706 16.984 36.1792 16.984 36.1993C16.984 36.2337 16.9868 36.2652 16.9925 36.2939C16.9983 36.3226 17.0069 36.3484 17.0155 36.3742C17.0928 36.6036 17.2648 36.7212 17.5255 36.7212C17.6545 36.7212 17.7633 36.7011 17.8464 36.661C17.9324 36.6208 18.0012 36.5692 18.0585 36.5061C18.0843 36.4803 18.1072 36.4774 18.1301 36.4975L18.4081 36.7441C18.431 36.7642 18.431 36.7843 18.4138 36.8101C18.3164 36.9248 18.1874 37.0166 18.0298 37.0883C17.8722 37.1599 17.6888 37.1972 17.4768 37.1972M17.9295 35.749C17.9295 35.6745 17.9209 35.6114 17.9009 35.554C17.8694 35.4623 17.8149 35.3906 17.7347 35.3361C17.6545 35.2845 17.5628 35.2586 17.4567 35.2586C17.3507 35.2586 17.2504 35.2845 17.1731 35.3361C17.0928 35.3877 17.0384 35.4623 17.0069 35.554C16.9868 35.6114 16.9782 35.6773 16.9782 35.749C16.9782 35.7691 16.9868 35.7777 17.0069 35.7777H17.9009C17.9209 35.7777 17.9295 35.7691 17.9295 35.749Z" fill="#B18F61"/>
<path d="M20.9928 33.9679C21.0014 33.9363 21.0214 33.9191 21.0558 33.9191H21.4914C21.5229 33.9191 21.5429 33.9335 21.5515 33.9679L22.6404 37.0937C22.649 37.1253 22.6404 37.1425 22.606 37.1425H22.1418C22.1103 37.1425 22.0902 37.1281 22.0788 37.0937L21.8667 36.4685H20.6547L20.4426 37.0937C20.434 37.1253 20.414 37.1425 20.3825 37.1425H19.924C19.8925 37.1425 19.881 37.1281 19.8896 37.0937L20.9928 33.9679ZM21.6977 35.9724L21.2707 34.7221H21.2564L20.8266 35.9724H21.6977Z" fill="#B18F61"/>
<path d="M24.4423 37.1419C24.4108 37.1419 24.3936 37.1276 24.3936 37.0932V36.9268H24.3879C24.3249 37.0043 24.2475 37.0702 24.1529 37.119C24.0612 37.1677 23.9409 37.1935 23.7948 37.1935C23.6716 37.1935 23.5627 37.1734 23.4652 37.1304C23.3678 37.0874 23.2876 37.0272 23.2188 36.9526C23.15 36.8781 23.0985 36.7863 23.0641 36.6859C23.0268 36.5827 23.0096 36.4709 23.0096 36.3475V34.9079C23.0096 34.8764 23.0268 34.8592 23.0584 34.8592H23.4939C23.5254 34.8592 23.5397 34.8764 23.5397 34.9079V36.2242C23.5397 36.3734 23.5741 36.4938 23.6429 36.5856C23.7117 36.6773 23.8206 36.7232 23.9638 36.7232C24.0985 36.7232 24.2045 36.6773 24.279 36.5856C24.3535 36.4938 24.3908 36.3762 24.3908 36.23V34.9079C24.3908 34.8764 24.408 34.8592 24.4395 34.8592H24.875C24.9065 34.8592 24.9237 34.8764 24.9237 34.9079V37.096C24.9237 37.1276 24.9065 37.1448 24.875 37.1448H24.4395L24.4423 37.1419Z" fill="#B18F61"/>
<path d="M26.282 37.1683C26.0528 37.1683 25.8895 37.1138 25.7921 37.002C25.6946 36.893 25.6488 36.7238 25.6488 36.5001V35.2985C25.6488 35.2784 25.6402 35.2698 25.6201 35.2698H25.4683C25.4367 35.2698 25.4196 35.2526 25.4196 35.2211V34.9028C25.4196 34.8712 25.4367 34.854 25.4683 34.854H25.6201C25.6402 34.854 25.6488 34.8454 25.6488 34.8253V34.2002C25.6488 34.1686 25.666 34.1514 25.6975 34.1514H26.133C26.1646 34.1514 26.1789 34.1686 26.1789 34.2002V34.8253C26.1789 34.8454 26.1875 34.854 26.2075 34.854H26.5113C26.5428 34.854 26.56 34.8712 26.56 34.9028V35.2211C26.56 35.2526 26.5428 35.2698 26.5113 35.2698H26.2075C26.1875 35.2698 26.1789 35.2784 26.1789 35.2985V36.4829C26.1789 36.5661 26.1961 36.6205 26.2305 36.6521C26.2649 36.6836 26.3193 36.698 26.3909 36.698H26.5084C26.5399 36.698 26.5571 36.7152 26.5571 36.7467V37.1253C26.5571 37.1568 26.5399 37.174 26.5084 37.174H26.282V37.1683Z" fill="#B18F61"/>
<path d="M28.5769 37.1425C28.5454 37.1425 28.5311 37.1281 28.5311 37.0937V35.7774C28.5311 35.6283 28.4938 35.5079 28.4222 35.4161C28.3506 35.3243 28.2417 35.2784 28.1013 35.2784C27.9609 35.2784 27.8548 35.3243 27.7803 35.4161C27.7058 35.5079 27.6657 35.6283 27.6657 35.7774V37.0937C27.6657 37.1253 27.6485 37.1425 27.617 37.1425H27.1815C27.1499 37.1425 27.1356 37.1281 27.1356 37.0937V33.9679C27.1356 33.9363 27.1499 33.9191 27.1815 33.9191H27.617C27.6485 33.9191 27.6657 33.9335 27.6657 33.9679V35.072H27.6715C27.723 35.0003 27.7975 34.9372 27.895 34.8856C27.9952 34.8339 28.1185 34.8081 28.2703 34.8081C28.3935 34.8081 28.5024 34.8282 28.5998 34.8712C28.6973 34.9142 28.7775 34.9716 28.8491 35.049C28.9179 35.1236 28.9723 35.2125 29.0067 35.3157C29.044 35.419 29.0612 35.5308 29.0612 35.6541V37.0937C29.0612 37.1253 29.044 37.1425 29.0125 37.1425H28.5769Z" fill="#B18F61"/>
<path d="M30.623 37.1944C30.3909 37.1944 30.1903 37.1399 30.0241 37.028C29.8579 36.9191 29.7433 36.7642 29.6803 36.5635C29.6545 36.4803 29.6373 36.3971 29.623 36.314C29.6115 36.2308 29.6029 36.1247 29.6029 35.9985C29.6029 35.8723 29.6086 35.7662 29.623 35.6831C29.6344 35.5999 29.6545 35.5167 29.6803 35.4336C29.7433 35.2357 29.8579 35.0808 30.0241 34.969C30.1903 34.86 30.388 34.8027 30.623 34.8027C30.858 34.8027 31.0499 34.8572 31.2161 34.969C31.3823 35.0808 31.4969 35.2328 31.56 35.4336C31.5858 35.5167 31.603 35.5999 31.6173 35.6831C31.6287 35.7662 31.6373 35.8723 31.6373 35.9985C31.6373 36.1247 31.6316 36.2308 31.6173 36.314C31.6058 36.3971 31.5858 36.4803 31.56 36.5635C31.4969 36.7613 31.3823 36.9162 31.2161 37.028C31.0499 37.1399 30.8522 37.1944 30.623 37.1944ZM30.623 36.7212C30.729 36.7212 30.8178 36.6954 30.8895 36.6438C30.9611 36.5921 31.0127 36.5176 31.0471 36.4229C31.0671 36.3627 31.0786 36.3025 31.0843 36.2423C31.0901 36.182 31.0929 36.1018 31.0929 36.0043C31.0929 35.9067 31.0901 35.8265 31.0843 35.7662C31.0786 35.706 31.0643 35.6458 31.0471 35.5827C31.0127 35.4881 30.9582 35.4135 30.8895 35.3619C30.8178 35.3103 30.729 35.2845 30.623 35.2845C30.517 35.2845 30.4253 35.3103 30.3536 35.3619C30.282 35.4135 30.2276 35.4881 30.1932 35.5827C30.1731 35.6458 30.1617 35.7089 30.1559 35.7662C30.1502 35.8265 30.1473 35.9039 30.1473 36.0043C30.1473 36.1046 30.1502 36.182 30.1559 36.2423C30.1617 36.3054 30.176 36.3656 30.1932 36.4229C30.2276 36.5176 30.282 36.5921 30.3536 36.6438C30.4253 36.6954 30.517 36.7212 30.623 36.7212Z" fill="#B18F61"/>
<path d="M32.2475 37.1425C32.216 37.1425 32.2017 37.1281 32.2017 37.0937V34.9056C32.2017 34.8741 32.216 34.8569 32.2475 34.8569H32.683C32.7146 34.8569 32.7318 34.8741 32.7318 34.9056V35.1006H32.7375C32.7919 35.0117 32.8664 34.9401 32.9639 34.8884C33.0613 34.8339 33.1845 34.8081 33.3278 34.8081C33.4195 34.8081 33.5054 34.8253 33.5914 34.8569C33.6745 34.8913 33.7461 34.9372 33.8063 34.9974C33.8292 35.0203 33.8321 35.0404 33.8149 35.0634L33.5627 35.3817C33.5427 35.4075 33.5226 35.4104 33.4968 35.3903C33.4424 35.3559 33.3908 35.3301 33.3364 35.31C33.2819 35.2899 33.2246 35.2813 33.1616 35.2813C33.0097 35.2813 32.9008 35.3329 32.832 35.4333C32.7633 35.5337 32.7289 35.6771 32.7289 35.8606V37.0966C32.7289 37.1281 32.7117 37.1453 32.6802 37.1453H32.2446L32.2475 37.1425Z" fill="#B18F61"/>
<path d="M34.2507 34.4296C34.2192 34.4296 34.2048 34.4124 34.2048 34.3808V33.9679C34.2048 33.9363 34.2192 33.9191 34.2507 33.9191H34.6862C34.7177 33.9191 34.7349 33.9335 34.7349 33.9679V34.3808C34.7349 34.4124 34.7177 34.4296 34.6862 34.4296H34.2507ZM34.2507 37.1425C34.2192 37.1425 34.2048 37.1281 34.2048 37.0937V34.9056C34.2048 34.8741 34.2192 34.8569 34.2507 34.8569H34.6862C34.7177 34.8569 34.7349 34.8741 34.7349 34.9056V37.0937C34.7349 37.1253 34.7177 37.1425 34.6862 37.1425H34.2507Z" fill="#B18F61"/>
<path d="M36.0906 37.1683C35.8614 37.1683 35.6981 37.1138 35.6007 37.002C35.5032 36.893 35.4574 36.7238 35.4574 36.5001V35.2985C35.4574 35.2784 35.4488 35.2698 35.4287 35.2698H35.2769C35.2453 35.2698 35.2281 35.2526 35.2281 35.2211V34.9028C35.2281 34.8712 35.2453 34.854 35.2769 34.854H35.4287C35.4488 34.854 35.4574 34.8454 35.4574 34.8253V34.2002C35.4574 34.1686 35.4746 34.1514 35.5061 34.1514H35.9416C35.9732 34.1514 35.9875 34.1686 35.9875 34.2002V34.8253C35.9875 34.8454 35.9961 34.854 36.0161 34.854H36.3199C36.3514 34.854 36.3686 34.8712 36.3686 34.9028V35.2211C36.3686 35.2526 36.3514 35.2698 36.3199 35.2698H36.0161C35.9961 35.2698 35.9875 35.2784 35.9875 35.2985V36.4829C35.9875 36.5661 36.0047 36.6205 36.0391 36.6521C36.0734 36.6836 36.1279 36.698 36.1995 36.698H36.317C36.3485 36.698 36.3657 36.7152 36.3657 36.7467V37.1253C36.3657 37.1568 36.3485 37.174 36.317 37.174H36.0906V37.1683Z" fill="#B18F61"/>
<path d="M37.0246 37.9939C36.9931 37.9939 36.9759 37.9767 36.9759 37.9452V37.5666C36.9759 37.5351 36.9931 37.5179 37.0246 37.5179H37.1106C37.2023 37.5179 37.2739 37.4978 37.3226 37.4548C37.3742 37.4118 37.4143 37.3429 37.4516 37.2483L37.5175 37.0533L36.6836 34.9025C36.675 34.871 36.6865 34.8538 36.7209 34.8538H37.188C37.2166 34.8538 37.2367 34.871 37.2453 34.9025L37.761 36.3937H37.7696L38.2625 34.9025C38.2711 34.871 38.2911 34.8538 38.3198 34.8538H38.7697C38.804 34.8538 38.8184 34.871 38.8069 34.9025L37.9358 37.2799C37.8843 37.4146 37.8355 37.5293 37.784 37.6182C37.7324 37.7071 37.6779 37.7817 37.6178 37.8362C37.5576 37.8907 37.4917 37.9308 37.4201 37.9538C37.3484 37.9767 37.2625 37.9882 37.1679 37.9882H37.0218L37.0246 37.9939Z" fill="#B18F61"/>
<path d="M40.3637 33.9645C40.3637 33.933 40.3809 33.9158 40.4124 33.9158H42.4268C42.4583 33.9158 42.4726 33.933 42.4726 33.9645V34.3746C42.4726 34.4062 42.4583 34.4234 42.4268 34.4234H40.9511C40.9311 34.4234 40.9225 34.432 40.9225 34.452V35.2665C40.9225 35.2865 40.9311 35.2952 40.9511 35.2952H42.1947C42.2262 35.2952 42.2434 35.3124 42.2434 35.3439V35.754C42.2434 35.7855 42.2262 35.8027 42.1947 35.8027H40.9511C40.9311 35.8027 40.9225 35.8113 40.9225 35.8314V37.0961C40.9225 37.1276 40.9053 37.1448 40.8738 37.1448H40.4096C40.378 37.1448 40.3608 37.1276 40.3608 37.0961V33.9674L40.3637 33.9645Z" fill="#B18F61"/>
<path d="M43.7327 37.1944C43.5006 37.1944 43.3001 37.1399 43.1339 37.028C42.9677 36.9191 42.8531 36.7642 42.79 36.5635C42.7642 36.4803 42.747 36.3971 42.7327 36.314C42.7212 36.2308 42.7126 36.1247 42.7126 35.9985C42.7126 35.8723 42.7184 35.7662 42.7327 35.6831C42.7442 35.5999 42.7642 35.5167 42.79 35.4336C42.8531 35.2357 42.9677 35.0808 43.1339 34.969C43.3001 34.86 43.4978 34.8027 43.7327 34.8027C43.9677 34.8027 44.1597 34.8572 44.3259 34.969C44.4921 35.0808 44.6067 35.2328 44.6697 35.4336C44.6955 35.5167 44.7127 35.5999 44.727 35.6831C44.7385 35.7662 44.7471 35.8723 44.7471 35.9985C44.7471 36.1247 44.7414 36.2308 44.727 36.314C44.7156 36.3971 44.6955 36.4803 44.6697 36.5635C44.6067 36.7613 44.4921 36.9162 44.3259 37.028C44.1597 37.1399 43.962 37.1944 43.7327 37.1944ZM43.7327 36.7212C43.8388 36.7212 43.9276 36.6954 43.9992 36.6438C44.0708 36.5921 44.1224 36.5176 44.1568 36.4229C44.1769 36.3627 44.1883 36.3025 44.1941 36.2423C44.1998 36.182 44.2027 36.1018 44.2027 36.0043C44.2027 35.9067 44.1998 35.8265 44.1941 35.7662C44.1883 35.706 44.174 35.6458 44.1568 35.5827C44.1224 35.4881 44.068 35.4135 43.9992 35.3619C43.9276 35.3103 43.8388 35.2845 43.7327 35.2845C43.6267 35.2845 43.535 35.3103 43.4634 35.3619C43.3917 35.4135 43.3373 35.4881 43.3029 35.5827C43.2829 35.6458 43.2714 35.7089 43.2657 35.7662C43.2599 35.8265 43.2571 35.9039 43.2571 36.0043C43.2571 36.1046 43.2599 36.182 43.2657 36.2423C43.2714 36.3054 43.2857 36.3656 43.3029 36.4229C43.3373 36.5176 43.3917 36.5921 43.4634 36.6438C43.535 36.6954 43.6267 36.7212 43.7327 36.7212Z" fill="#B18F61"/>
<path d="M45.3601 37.1425C45.3285 37.1425 45.3142 37.1281 45.3142 37.0937V34.9056C45.3142 34.8741 45.3285 34.8569 45.3601 34.8569H45.7956C45.8271 34.8569 45.8443 34.8741 45.8443 34.9056V35.1006H45.85C45.9045 35.0117 45.979 34.9401 46.0764 34.8884C46.1738 34.8339 46.297 34.8081 46.4403 34.8081C46.532 34.8081 46.618 34.8253 46.7039 34.8569C46.787 34.8913 46.8587 34.9372 46.9188 34.9974C46.9418 35.0203 46.9446 35.0404 46.9274 35.0634L46.6753 35.3817C46.6552 35.4075 46.6352 35.4104 46.6094 35.3903C46.5549 35.3559 46.5034 35.3301 46.4489 35.31C46.3945 35.2899 46.3372 35.2813 46.2741 35.2813C46.1223 35.2813 46.0134 35.3329 45.9446 35.4333C45.8758 35.5337 45.8414 35.6771 45.8414 35.8606V37.0966C45.8414 37.1281 45.8243 37.1453 45.7927 37.1453H45.3572L45.3601 37.1425Z" fill="#B18F61"/>
<path d="M48.9505 33.9217H48.4891C48.4622 33.9217 48.4404 33.9435 48.4404 33.9704V37.0934C48.4404 37.1203 48.4622 37.1421 48.4891 37.1421H48.9505C48.9774 37.1421 48.9992 37.1203 48.9992 37.0934V33.9704C48.9992 33.9435 48.9774 33.9217 48.9505 33.9217Z" fill="#B18F61"/>
<path d="M51.1394 37.1425C51.1079 37.1425 51.0936 37.1281 51.0936 37.0937V35.7774C51.0936 35.6283 51.0563 35.5079 50.9847 35.4161C50.9131 35.3243 50.8042 35.2784 50.6638 35.2784C50.5234 35.2784 50.4173 35.3243 50.3428 35.4161C50.2683 35.5079 50.2282 35.6283 50.2282 35.7774V37.0937C50.2282 37.1253 50.211 37.1425 50.1795 37.1425H49.744C49.7124 37.1425 49.6981 37.1281 49.6981 37.0937V34.9056C49.6981 34.8741 49.7124 34.8569 49.744 34.8569H50.1795C50.211 34.8569 50.2282 34.8741 50.2282 34.9056V35.072H50.234C50.2855 35.0003 50.36 34.9372 50.4575 34.8856C50.5577 34.8339 50.681 34.8081 50.8328 34.8081C50.956 34.8081 51.0649 34.8282 51.1623 34.8712C51.2598 34.9142 51.34 34.9716 51.4116 35.049C51.4804 35.1236 51.5349 35.2125 51.5692 35.3157C51.6065 35.419 51.6237 35.5308 51.6237 35.6541V37.0937C51.6237 37.1253 51.6065 37.1425 51.575 37.1425H51.1394Z" fill="#B18F61"/>
<path d="M53.6953 37.142C53.6638 37.142 53.6495 37.1276 53.6495 37.0932V36.924H53.6437C53.5893 37.0043 53.5148 37.0674 53.4174 37.119C53.3199 37.1706 53.1938 37.1936 53.0391 37.1936C52.8443 37.1936 52.6781 37.1477 52.5434 37.0559C52.4087 36.9642 52.3113 36.8265 52.2511 36.643C52.2225 36.5541 52.2024 36.4623 52.191 36.3705C52.1795 36.2788 52.1709 36.1526 52.1709 35.9977C52.1709 35.8429 52.1766 35.7196 52.191 35.6249C52.2053 35.5303 52.2253 35.4414 52.2511 35.3525C52.3113 35.169 52.4087 35.0313 52.5434 34.9396C52.6781 34.8478 52.8443 34.8019 53.0391 34.8019C53.1938 34.8019 53.3199 34.8277 53.4174 34.8765C53.5148 34.9281 53.5921 34.9912 53.6437 35.0715H53.6495V33.9645C53.6495 33.933 53.6638 33.9158 53.6953 33.9158H54.1308C54.1624 33.9158 54.1796 33.9301 54.1796 33.9645V37.0903C54.1796 37.1219 54.1624 37.1391 54.1308 37.1391H53.6953V37.142ZM53.1767 36.7204C53.3973 36.7204 53.5406 36.6229 53.6036 36.4279C53.6179 36.3734 53.6323 36.3161 53.638 36.253C53.6466 36.1899 53.6495 36.1067 53.6495 36.0006C53.6495 35.8945 53.6466 35.8113 53.638 35.7511C53.6294 35.688 53.6179 35.6307 53.6036 35.5762C53.5406 35.3812 53.3973 35.2837 53.1767 35.2837C52.956 35.2837 52.8185 35.3812 52.7554 35.5762C52.7411 35.6307 52.7268 35.688 52.7211 35.7511C52.7125 35.8142 52.7096 35.8974 52.7096 36.0006C52.7096 36.1038 52.7125 36.187 52.7211 36.253C52.7297 36.3161 52.7411 36.3734 52.7554 36.4279C52.8185 36.6229 52.9589 36.7204 53.1767 36.7204Z" fill="#B18F61"/>
<path d="M56.2684 37.1419C56.2369 37.1419 56.2197 37.1276 56.2197 37.0932V36.9268H56.214C56.1509 37.0043 56.0736 37.0702 55.979 37.119C55.8873 37.1677 55.767 37.1935 55.6208 37.1935C55.4976 37.1935 55.3887 37.1734 55.2913 37.1304C55.1939 37.0874 55.1136 37.0272 55.0449 36.9526C54.9761 36.8781 54.9245 36.7863 54.8901 36.6859C54.8529 36.5827 54.8357 36.4709 54.8357 36.3475V34.9079C54.8357 34.8764 54.8529 34.8592 54.8844 34.8592H55.3199C55.3515 34.8592 55.3658 34.8764 55.3658 34.9079V36.2242C55.3658 36.3734 55.4002 36.4938 55.469 36.5856C55.5377 36.6773 55.6466 36.7232 55.7899 36.7232C55.9245 36.7232 56.0306 36.6773 56.1051 36.5856C56.1796 36.4938 56.2168 36.3762 56.2168 36.23V34.9079C56.2168 34.8764 56.234 34.8592 56.2655 34.8592H56.7011C56.7326 34.8592 56.7498 34.8764 56.7498 34.9079V37.096C56.7498 37.1276 56.7326 37.1448 56.7011 37.1448H56.2655L56.2684 37.1419Z" fill="#B18F61"/>
<path d="M58.2856 37.194C58.0507 37.194 57.8529 37.1567 57.6925 37.0793C57.5291 37.0048 57.4002 36.9216 57.3056 36.8327C57.2827 36.8097 57.2827 36.7897 57.3056 36.7667L57.575 36.4828C57.5979 36.4599 57.618 36.4599 57.6409 36.4828C57.724 36.5574 57.8243 36.6205 57.9475 36.6692C58.0678 36.718 58.1882 36.7438 58.3085 36.7438C58.4489 36.7438 58.555 36.718 58.6266 36.6692C58.6954 36.6176 58.7298 36.5545 58.7298 36.4742C58.7298 36.4054 58.704 36.3509 58.6524 36.3079C58.6008 36.2677 58.5005 36.2391 58.3515 36.2219L58.1051 36.1989C57.873 36.1731 57.6953 36.1043 57.5807 35.9896C57.4632 35.8749 57.4059 35.72 57.4059 35.525C57.4059 35.3042 57.4804 35.1293 57.6323 35.0002C57.7842 34.8712 58.0019 34.8052 58.2913 34.8052C58.4719 34.8052 58.6323 34.831 58.7785 34.8826C58.9246 34.9343 59.0478 35.0031 59.1481 35.0834C59.1739 35.1034 59.1768 35.1235 59.1567 35.1493L58.9246 35.4275C58.9045 35.4504 58.8845 35.4533 58.8587 35.4361C58.7871 35.3845 58.6982 35.3415 58.5922 35.3042C58.4862 35.2669 58.3773 35.2468 58.2627 35.2468C58.1481 35.2468 58.0621 35.2698 58.0048 35.3128C57.9475 35.3587 57.916 35.4132 57.916 35.482C57.916 35.5508 57.9418 35.6024 57.9905 35.6397C58.0421 35.6799 58.1395 35.7057 58.2885 35.7229L58.5349 35.7458C58.7756 35.7716 58.9533 35.8405 59.0679 35.9552C59.1825 36.0699 59.2398 36.2219 59.2398 36.4111C59.2398 36.6377 59.1596 36.8241 58.9991 36.9675C58.8386 37.1109 58.6008 37.1826 58.2856 37.1826" fill="#B18F61"/>
<path d="M60.4662 37.1683C60.237 37.1683 60.0737 37.1138 59.9763 37.002C59.8788 36.893 59.833 36.7238 59.833 36.5001V35.2985C59.833 35.2784 59.8244 35.2698 59.8043 35.2698H59.6525C59.621 35.2698 59.6038 35.2526 59.6038 35.2211V34.9028C59.6038 34.8712 59.621 34.854 59.6525 34.854H59.8043C59.8244 34.854 59.833 34.8454 59.833 34.8253V34.2002C59.833 34.1686 59.8502 34.1514 59.8817 34.1514H60.3172C60.3488 34.1514 60.3631 34.1686 60.3631 34.2002V34.8253C60.3631 34.8454 60.3717 34.854 60.3917 34.854H60.6955C60.727 34.854 60.7442 34.8712 60.7442 34.9028V35.2211C60.7442 35.2526 60.727 35.2698 60.6955 35.2698H60.3917C60.3717 35.2698 60.3631 35.2784 60.3631 35.2985V36.4829C60.3631 36.5661 60.3803 36.6205 60.4147 36.6521C60.4491 36.6836 60.5035 36.698 60.5751 36.698H60.6926C60.7241 36.698 60.7413 36.7152 60.7413 36.7467V37.1253C60.7413 37.1568 60.7241 37.174 60.6926 37.174H60.4662V37.1683Z" fill="#B18F61"/>
<path d="M61.366 37.1425C61.3345 37.1425 61.3202 37.1281 61.3202 37.0937V34.9056C61.3202 34.8741 61.3345 34.8569 61.366 34.8569H61.8016C61.8331 34.8569 61.8503 34.8741 61.8503 34.9056V35.1006H61.856C61.9105 35.0117 61.985 34.9401 62.0824 34.8884C62.1798 34.8339 62.303 34.8081 62.4463 34.8081C62.538 34.8081 62.6239 34.8253 62.7099 34.8569C62.793 34.8913 62.8646 34.9372 62.9248 34.9974C62.9477 35.0203 62.9506 35.0404 62.9334 35.0634L62.6813 35.3817C62.6612 35.4075 62.6411 35.4104 62.6154 35.3903C62.5609 35.3559 62.5093 35.3301 62.4549 35.31C62.4004 35.2899 62.3431 35.2813 62.2801 35.2813C62.1282 35.2813 62.0193 35.3329 61.9506 35.4333C61.8818 35.5337 61.8474 35.6771 61.8474 35.8606V37.0966C61.8474 37.1281 61.8302 37.1453 61.7987 37.1453H61.3632L61.366 37.1425Z" fill="#B18F61"/>
<path d="M63.3668 34.4296C63.3353 34.4296 63.3209 34.4124 63.3209 34.3808V33.9679C63.3209 33.9363 63.3353 33.9191 63.3668 33.9191H63.8023C63.8338 33.9191 63.851 33.9335 63.851 33.9679V34.3808C63.851 34.4124 63.8338 34.4296 63.8023 34.4296H63.3668ZM63.3668 37.1425C63.3353 37.1425 63.3209 37.1281 63.3209 37.0937V34.9056C63.3209 34.8741 63.3353 34.8569 63.3668 34.8569H63.8023C63.8338 34.8569 63.851 34.8741 63.851 34.9056V37.0937C63.851 37.1253 63.8338 37.1425 63.8023 37.1425H63.3668Z" fill="#B18F61"/>
<path d="M65.8964 37.1425C65.8648 37.1425 65.8476 37.1253 65.8476 37.0937V36.9274H65.8419C65.7875 37.0048 65.7072 37.0708 65.6012 37.1195C65.4952 37.1683 65.3605 37.1941 65.2001 37.1941C65.0969 37.1941 64.9966 37.1797 64.9049 37.1511C64.8132 37.1224 64.7301 37.0794 64.6614 37.0249C64.5926 36.9675 64.5381 36.8958 64.4952 36.8098C64.4551 36.7238 64.4321 36.6205 64.4321 36.5001C64.4321 36.2506 64.5124 36.0699 64.6757 35.9524C64.839 35.8348 65.0625 35.7774 65.3462 35.7774H65.8104C65.8304 35.7774 65.839 35.7688 65.839 35.7488V35.6398C65.839 35.505 65.8018 35.4075 65.7302 35.3473C65.6585 35.287 65.5238 35.2555 65.3319 35.2555C65.2029 35.2555 65.0969 35.2698 65.0138 35.3014C64.9307 35.3301 64.8648 35.3673 64.8104 35.4132C64.7817 35.4362 64.7588 35.4333 64.7445 35.4046L64.5697 35.092C64.5525 35.0662 64.5582 35.0462 64.5783 35.0318C64.67 34.9659 64.7788 34.9114 64.9107 34.8712C65.0396 34.8311 65.2001 34.8081 65.3892 34.8081C65.7359 34.8081 65.9823 34.8712 66.1256 34.9974C66.2689 35.1236 66.3405 35.3243 66.3405 35.6025V37.0937C66.3405 37.1253 66.3233 37.1425 66.2918 37.1425H65.8935H65.8964ZM65.3347 36.7639C65.4981 36.7639 65.6241 36.7324 65.7101 36.6693C65.7961 36.6062 65.839 36.5087 65.839 36.3768V36.2019C65.839 36.1818 65.8304 36.1732 65.8104 36.1732H65.4322C65.2631 36.1732 65.137 36.199 65.0596 36.2477C64.9794 36.2965 64.9422 36.3739 64.9422 36.4829C64.9422 36.6722 65.074 36.7668 65.3347 36.7668" fill="#B18F61"/>
<path d="M67.63 37.1683C67.4065 37.1683 67.2461 37.1138 67.1486 37.0077C67.0512 36.9016 67.0054 36.7352 67.0054 36.5144V33.9679C67.0054 33.9363 67.0226 33.9191 67.0541 33.9191H67.4896C67.5211 33.9191 67.5383 33.9335 67.5383 33.9679V36.4857C67.5383 36.566 67.5527 36.6205 67.587 36.6492C67.6186 36.6808 67.6701 36.6951 67.7389 36.6951H67.8421C67.8736 36.6951 67.8908 36.7123 67.8908 36.7438V37.1224C67.8908 37.1539 67.8736 37.1711 67.8421 37.1711H67.6329L67.63 37.1683Z" fill="#B18F61"/>
<path d="M70.5302 37.1938C70.4098 37.1938 70.2924 37.1823 70.1806 37.1593C70.066 37.1364 69.96 37.1077 69.8568 37.0676C69.7537 37.0303 69.6591 36.9844 69.5731 36.9299C69.4872 36.8783 69.4127 36.8209 69.3496 36.7607C69.3239 36.7349 69.321 36.712 69.341 36.689L69.6333 36.3478C69.6562 36.322 69.6763 36.322 69.6992 36.342C69.7508 36.3822 69.8081 36.4252 69.8711 36.4654C69.9371 36.5055 70.0058 36.5428 70.0803 36.5743C70.1548 36.6059 70.2322 36.6317 70.3153 36.6518C70.3984 36.6718 70.4843 36.6833 70.576 36.6833C70.768 36.6833 70.917 36.6403 71.023 36.5542C71.1291 36.4682 71.1806 36.3564 71.1806 36.2216C71.1806 36.104 71.1377 36.0094 71.0517 35.9348C70.9657 35.8603 70.8139 35.8086 70.5932 35.7771L70.4242 35.7542C70.1118 35.7111 69.8711 35.6136 69.705 35.4616C69.5388 35.3125 69.4528 35.1032 69.4528 34.8336C69.4528 34.6874 69.4786 34.5554 69.5273 34.435C69.5789 34.3146 69.6505 34.2113 69.7451 34.1282C69.8396 34.0421 69.9542 33.979 70.0889 33.9331C70.2236 33.8873 70.3726 33.8643 70.5417 33.8643C70.7422 33.8643 70.9342 33.893 71.1176 33.9532C71.2981 34.0134 71.4557 34.0909 71.5847 34.1884C71.6076 34.2084 71.6104 34.2314 71.5933 34.2543L71.3669 34.6071C71.3468 34.6329 71.3268 34.6357 71.301 34.6214C71.1692 34.5354 71.0402 34.4723 70.917 34.4321C70.7938 34.392 70.6649 34.3719 70.5302 34.3719C70.3669 34.3719 70.2408 34.4121 70.1548 34.4924C70.0689 34.5726 70.0259 34.6759 70.0259 34.8021C70.0259 34.9139 70.0717 35.0057 70.1577 35.0802C70.2465 35.1548 70.3984 35.2064 70.619 35.238L70.7909 35.2609C71.1033 35.3039 71.344 35.4014 71.5073 35.5534C71.6706 35.7025 71.7537 35.9176 71.7537 36.1958C71.7537 36.3392 71.7279 36.4711 71.6764 36.5944C71.6248 36.7177 71.5474 36.8238 71.4443 36.9127C71.3411 37.0016 71.2122 37.0704 71.0632 37.1221C70.9113 37.1737 70.7365 37.1966 70.5388 37.1966" fill="#B18F61"/>
<path d="M73.1893 37.1944C72.9457 37.1944 72.7423 37.137 72.5818 37.0252C72.4185 36.9133 72.3067 36.7585 72.2437 36.5577C72.2179 36.486 72.1978 36.4029 72.1835 36.314C72.1692 36.2251 72.1635 36.119 72.1635 35.9985C72.1635 35.8781 72.1692 35.772 72.1835 35.6802C72.195 35.5884 72.215 35.5053 72.2408 35.4336C72.3039 35.2357 72.4156 35.0808 72.5818 34.969C72.7451 34.8572 72.9428 34.8027 73.1692 34.8027C73.3956 34.8027 73.6047 34.86 73.7681 34.9719C73.9314 35.0837 74.0432 35.2386 74.1062 35.4336C74.1177 35.4737 74.1291 35.5167 74.1406 35.5569C74.1492 35.597 74.1578 35.6458 74.1635 35.7003C74.1692 35.7548 74.175 35.815 74.1778 35.8838C74.1807 35.9526 74.1836 36.0301 74.1836 36.1218C74.1836 36.1534 74.1664 36.1706 74.132 36.1706H72.7279C72.7079 36.1706 72.6993 36.1792 72.6993 36.1993C72.6993 36.2337 72.7021 36.2652 72.7079 36.2939C72.7136 36.3226 72.7222 36.3484 72.7308 36.3742C72.8082 36.6036 72.9801 36.7212 73.2408 36.7212C73.3698 36.7212 73.4787 36.7011 73.5618 36.661C73.6477 36.6208 73.7165 36.5692 73.7738 36.5061C73.7996 36.4803 73.8225 36.4774 73.8454 36.4975L74.1234 36.7441C74.1463 36.7642 74.1463 36.7843 74.1291 36.8101C74.0317 36.9248 73.9028 37.0166 73.7452 37.0883C73.5876 37.1599 73.4042 37.1972 73.1921 37.1972M73.642 35.749C73.642 35.6745 73.6334 35.6114 73.6134 35.554C73.5818 35.4623 73.5274 35.3906 73.4472 35.3361C73.3669 35.2845 73.2752 35.2586 73.1692 35.2586C73.0632 35.2586 72.9629 35.2845 72.8855 35.3361C72.8053 35.3877 72.7509 35.4623 72.7193 35.554C72.6993 35.6114 72.6907 35.6773 72.6907 35.749C72.6907 35.7691 72.6993 35.7777 72.7193 35.7777H73.6134C73.6334 35.7777 73.642 35.7691 73.642 35.749Z" fill="#B18F61"/>
<path d="M75.6384 37.1937C75.4092 37.1937 75.2115 37.1392 75.0453 37.0331C74.8791 36.927 74.7645 36.7693 74.6986 36.5657C74.6527 36.4223 74.627 36.2359 74.627 36.0036C74.627 35.7713 74.6499 35.5821 74.6986 35.4387C74.7645 35.2322 74.882 35.0773 75.0453 34.9712C75.2115 34.8651 75.4092 34.8106 75.6384 34.8106C75.8075 34.8106 75.9594 34.8422 76.094 34.9053C76.2258 34.9684 76.3376 35.0544 76.4293 35.1662C76.4494 35.192 76.4465 35.215 76.4236 35.2322L76.1256 35.4932C76.0998 35.5132 76.0768 35.5104 76.0597 35.4846C76.0023 35.4215 75.9422 35.3727 75.8763 35.3383C75.8104 35.3039 75.733 35.2867 75.6384 35.2867C75.5382 35.2867 75.4493 35.3096 75.3748 35.3612C75.3003 35.41 75.2459 35.4846 75.2115 35.5849C75.1914 35.6423 75.18 35.7054 75.1742 35.7713C75.1685 35.8402 75.1657 35.9176 75.1657 36.0065C75.1657 36.0954 75.1685 36.1728 75.1742 36.2445C75.18 36.3133 75.1943 36.3764 75.2115 36.4338C75.2459 36.5313 75.3003 36.6058 75.3748 36.6546C75.4493 36.7033 75.5353 36.7291 75.6384 36.7291C75.733 36.7291 75.8132 36.7119 75.8763 36.6775C75.9422 36.6431 76.0023 36.5944 76.0597 36.5313C76.0797 36.5083 76.0998 36.5083 76.1256 36.5255L76.4236 36.7865C76.4436 36.8037 76.4436 36.8238 76.4293 36.8525C76.3376 36.9586 76.2258 37.0446 76.094 37.1077C75.9622 37.1708 75.8104 37.2023 75.6384 37.2023" fill="#B18F61"/>
<path d="M78.3982 37.1419C78.3666 37.1419 78.3495 37.1276 78.3495 37.0932V36.9268H78.3437C78.2807 37.0043 78.2033 37.0702 78.1087 37.119C78.0171 37.1677 77.8967 37.1935 77.7506 37.1935C77.6274 37.1935 77.5185 37.1734 77.4211 37.1304C77.3236 37.0874 77.2434 37.0272 77.1746 36.9526C77.1059 36.8781 77.0543 36.7863 77.0199 36.6859C76.9826 36.5827 76.9655 36.4709 76.9655 36.3475V34.9079C76.9655 34.8764 76.9827 34.8592 77.0142 34.8592H77.4497C77.4812 34.8592 77.4956 34.8764 77.4956 34.9079V36.2242C77.4956 36.3734 77.5299 36.4938 77.5987 36.5856C77.6675 36.6773 77.7764 36.7232 77.9196 36.7232C78.0543 36.7232 78.1603 36.6773 78.2348 36.5856C78.3093 36.4938 78.3466 36.3762 78.3466 36.23V34.9079C78.3466 34.8764 78.3638 34.8592 78.3953 34.8592H78.8308C78.8624 34.8592 78.8795 34.8764 78.8795 34.9079V37.096C78.8795 37.1276 78.8624 37.1448 78.8308 37.1448H78.3953L78.3982 37.1419Z" fill="#B18F61"/>
<path d="M79.6184 37.1425C79.5868 37.1425 79.5725 37.1281 79.5725 37.0937V34.9056C79.5725 34.8741 79.5868 34.8569 79.6184 34.8569H80.0539C80.0854 34.8569 80.1026 34.8741 80.1026 34.9056V35.1006H80.1083C80.1628 35.0117 80.2373 34.9401 80.3347 34.8884C80.4321 34.8339 80.5553 34.8081 80.6986 34.8081C80.7903 34.8081 80.8763 34.8253 80.9622 34.8569C81.0453 34.8913 81.117 34.9372 81.1771 34.9974C81.2001 35.0203 81.2029 35.0404 81.1857 35.0634L80.9336 35.3817C80.9135 35.4075 80.8935 35.4104 80.8677 35.3903C80.8132 35.3559 80.7617 35.3301 80.7072 35.31C80.6528 35.2899 80.5955 35.2813 80.5324 35.2813C80.3806 35.2813 80.2717 35.3329 80.2029 35.4333C80.1341 35.5337 80.0997 35.6771 80.0997 35.8606V37.0966C80.0997 37.1281 80.0825 37.1453 80.051 37.1453H79.6155L79.6184 37.1425Z" fill="#B18F61"/>
<path d="M81.6191 34.4296C81.5876 34.4296 81.5732 34.4124 81.5732 34.3808V33.9679C81.5732 33.9363 81.5876 33.9191 81.6191 33.9191H82.0546C82.0861 33.9191 82.1033 33.9335 82.1033 33.9679V34.3808C82.1033 34.4124 82.0861 34.4296 82.0546 34.4296H81.6191ZM81.6191 37.1425C81.5876 37.1425 81.5732 37.1281 81.5732 37.0937V34.9056C81.5732 34.8741 81.5876 34.8569 81.6191 34.8569H82.0546C82.0861 34.8569 82.1033 34.8741 82.1033 34.9056V37.0937C82.1033 37.1253 82.0861 37.1425 82.0546 37.1425H81.6191Z" fill="#B18F61"/>
<path d="M83.4586 37.1683C83.2293 37.1683 83.066 37.1138 82.9686 37.002C82.8712 36.893 82.8253 36.7238 82.8253 36.5001V35.2985C82.8253 35.2784 82.8167 35.2698 82.7967 35.2698H82.6448C82.6133 35.2698 82.5961 35.2526 82.5961 35.2211V34.9028C82.5961 34.8712 82.6133 34.854 82.6448 34.854H82.7967C82.8167 34.854 82.8253 34.8454 82.8253 34.8253V34.2002C82.8253 34.1686 82.8425 34.1514 82.874 34.1514H83.3096C83.3411 34.1514 83.3554 34.1686 83.3554 34.2002V34.8253C83.3554 34.8454 83.364 34.854 83.3841 34.854H83.6878C83.7193 34.854 83.7365 34.8712 83.7365 34.9028V35.2211C83.7365 35.2526 83.7193 35.2698 83.6878 35.2698H83.3841C83.364 35.2698 83.3554 35.2784 83.3554 35.2985V36.4829C83.3554 36.5661 83.3726 36.6205 83.407 36.6521C83.4414 36.6836 83.4958 36.698 83.5674 36.698H83.6849C83.7164 36.698 83.7336 36.7152 83.7336 36.7467V37.1253C83.7336 37.1568 83.7164 37.174 83.6849 37.174H83.4586V37.1683Z" fill="#B18F61"/>
<path d="M84.3925 37.9939C84.361 37.9939 84.3438 37.9767 84.3438 37.9452V37.5666C84.3438 37.5351 84.361 37.5179 84.3925 37.5179H84.4785C84.5702 37.5179 84.6418 37.4978 84.6905 37.4548C84.7421 37.4118 84.7822 37.3429 84.8195 37.2483L84.8854 37.0533L84.0516 34.9025C84.043 34.871 84.0544 34.8538 84.0888 34.8538H84.5559C84.5845 34.8538 84.6046 34.871 84.6132 34.9025L85.129 36.3937H85.1375L85.6304 34.9025C85.639 34.871 85.6591 34.8538 85.6877 34.8538H86.1376C86.172 34.8538 86.1863 34.871 86.1748 34.9025L85.3037 37.2799C85.2522 37.4146 85.2035 37.5293 85.1519 37.6182C85.1003 37.7071 85.0459 37.7817 84.9857 37.8362C84.9255 37.8907 84.8596 37.9308 84.788 37.9538C84.7163 37.9767 84.6304 37.9882 84.5358 37.9882H84.3897L84.3925 37.9939Z" fill="#B18F61"/>
<path d="M59.1369 0.387146H54.1941V19.8676H59.1369V0.387146Z" fill="#325B4B"/>
<path d="M24.855 20.0569H30.3451L32.924 16.2342H45.0618L47.6293 20.0569H53.1595L39.0072 0L24.855 20.0569ZM42.7724 12.8216H35.2306L39.0101 7.21807L42.7724 12.8216Z" fill="#325B4B"/>
<path d="M20.4993 9.71267L1.18069 6.86789L4.73379 11.5308L19.1353 13.9569C19.6482 14.0429 20.0207 14.4846 20.0207 15.0036C20.0207 15.5886 19.5451 16.0676 18.9577 16.0676H4.24667L0.876953 20.4867H19.5967V20.4896C21.0437 20.4896 22.4076 19.9247 23.4306 18.9009C24.4535 17.8771 25.018 16.5121 25.018 15.0639C25.018 12.4055 23.1183 10.1572 20.4993 9.71267Z" fill="#325B4B"/>
<path d="M25.2995 0.903167L4.7803 0.900299L1.40771 5.31947H21.9298L25.2995 0.903167Z" fill="#325B4B"/>
<path d="M82.6334 9.71267L63.3148 6.86789L66.8679 11.5308L81.2694 13.9569C81.7823 14.0429 82.1548 14.4846 82.1548 15.0036C82.1548 15.5886 81.6792 16.0676 81.0918 16.0676H66.3779L63.0082 20.4867H81.7279V20.4896C83.1749 20.4896 84.5389 19.9247 85.5618 18.9009C86.5848 17.8771 87.1492 16.5121 87.1492 15.0639C87.1492 12.4055 85.2495 10.1572 82.6305 9.71267H82.6334Z" fill="#325B4B"/>
<path d="M87.4328 0.903167L66.9136 0.900299L63.541 5.31947H84.0631L87.4328 0.903167Z" fill="#325B4B"/>
</svg>